<?xml version="1.0" encoding="utf-8"?>
<!-- Generator: Adobe Illustrator 21.0.0, SVG Export Plug-In . SVG Version: 6.00 Build 0)  -->
<svg version="1.1" id="building" xmlns="http://www.w3.org/2000/svg" xmlns:xlink="http://www.w3.org/1999/xlink" 
	 viewBox="0 0 1200 400"  x="0%" y="100%"  xml:space="preserve">
<style type="text/css">
	.st0{fill:#42133B;}
	.st1{fill:#DC6B7B;}
	.st2{fill:url(#SVGID_1_);}
	.st3{fill:#009FE3;}
	.st4{fill:#9F5E9F;}
	.st5{fill:#521C3E;}
	.st6{opacity:0.36;fill:#635C8D;enable-background:new    ;}
	.st7{fill:url(#SVGID_2_);}
	.st8{fill:#DC3EF7;}
	.st9{fill:#FFFFFF;}
	.st10{opacity:0.5;fill:#7270B8;enable-background:new    ;}
	.st11{fill:#B19AF7;}
	.st12{fill:#FFD4AE;}
	.st13{opacity:0.35;fill:#7E0064;enable-background:new    ;}
	.st14{fill:#FFC2B8;}
	.st15{opacity:0.3;fill:#7270B8;enable-background:new    ;}
	.st16{fill:url(#SVGID_3_);}
	.st17{fill:#D85C6E;}
	.st18{opacity:0.2;fill:#FF7939;enable-background:new    ;}
	.st19{opacity:0.2;fill:#FF7983;enable-background:new    ;}
	.st20{opacity:0.52;fill:#7E0064;enable-background:new    ;}
	.st21{fill:url(#SVGID_4_);}
	.st22{fill:url(#SVGID_5_);}
	.st23{fill:url(#SVGID_6_);}
	.st24{fill:url(#SVGID_7_);}
	.st25{fill:#D8435F;}
	.st26{fill:#A22C36;}
	.st27{fill:#A25454;}
	.st28{fill:#834763;}
	.st29{fill:#DB8B9F;}
	.st30{opacity:0.2;fill:#7E0064;enable-background:new    ;}
	.st31{fill:url(#SVGID_8_);}
	.st32{fill:#7C0F49;}
	.st33{fill:#20FFED;}
	.st34{fill:#205799;}
	.st35{fill:#003E84;}
	.st36{fill:#206499;}
	.st37{fill:#861848;}
	.st38{fill:url(#SVGID_9_);}
	.st39{fill:url(#SVGID_10_);}
	.st40{fill:#E6007E;}
	.st41{fill:#A22736;}
	.st42{fill:#FF5E36;}
	.st43{fill:#B51B3D;}
	.st44{fill:#862236;}
	.st45{fill:url(#SVGID_11_);}
	.st46{fill:url(#SVGID_12_);}
	.st47{fill:url(#SVGID_13_);}
	.st48{fill:url(#SVGID_14_);}
	.st49{fill:url(#SVGID_15_);}
	.st50{fill:url(#SVGID_16_);}
	.st51{fill:url(#SVGID_17_);}
	.st52{fill:#FF6D9C;}
	.st53{fill:#BF3B51;}
	.st54{opacity:0.2;fill:#72704F;enable-background:new    ;}
	.st55{opacity:0.2;fill:#A7206B;enable-background:new    ;}
	.st56{opacity:0.2;fill:#FFFF4F;enable-background:new    ;}
	.st57{fill:url(#SVGID_18_);}
	.st58{fill:#D55164;}
	.st59{fill:url(#SVGID_19_);}
	.st60{fill:url(#SVGID_20_);}
	.st61{fill:#E7D6DB;}
	.st62{fill:#B47C8F;}
	.st63{fill:#86556E;}
	.st64{fill:#9A7C8F;}
	.st65{fill:#C4A2B6;}
	.st66{fill:#522F72;}
	.st67{fill:#F44A72;}
	.st68{fill:#A41A72;}
</style>
<g>
	<g>
		<g>
			<polygon class="st0" points="878.9,110.8 818.3,131.5 819.4,141 1102.5,135.9 1136,123.9 			"/>
			<polygon class="st1" points="884.3,122.2 826.8,140.2 836.5,353.9 892.3,353.5 			"/>
			
				<linearGradient id="SVGID_1_" gradientUnits="userSpaceOnUse" x1="1007.15" y1="51.2853" x2="1007.15" y2="269.2469" gradientTransform="matrix(1 0 0 -1 0 402)">
				<stop  offset="0" style="stop-color:#FFB898"/>
				<stop  offset="0.9946" style="stop-color:#FFE2C0"/>
			</linearGradient>
			<polygon class="st2" points="892.3,353.5 884.3,122.2 1130,125.2 1113.3,354 			"/>
			<polygon class="st3" points="884.8,265.3 1124.7,267.1 1130,182.9 881.9,186.3 			"/>
			<polygon class="st0" points="881.9,186.3 828.2,198.4 830.8,267.7 884.8,265.3 			"/>
			<g>
				<rect x="959.3" y="282.3" class="st4" width="0.2" height="18.5"/>
			</g>
			<g>
				
					<rect x="1029.8" y="289.9" transform="matrix(5.471800e-02 -0.9985 0.9985 5.471800e-02 690.5856 1309.5187)" class="st4" width="14.2" height="0.3"/>
			</g>
			<polygon class="st5" points="892.3,281.8 1115.7,283.6 1112,354 893.9,353.3 			"/>
			<polygon class="st6" points="893.9,353.3 892.3,281.8 1115.7,283.6 1064.9,287.1 1061.2,353.5 			"/>
			<polygon class="st5" points="889.1,281.8 834.8,281.8 836.5,353.9 890.9,353.5 			"/>
			<path class="st4" d="M1034.2,312.5l-2.7,40.7l-70.1-0.5l-1.3-39.6L1034.2,312.5L1034.2,312.5z M1035,311.8l-75.6,0.6l1.3,41.1
				l71.5,0.5L1035,311.8L1035,311.8z"/>
			<g>
				<polygon class="st4" points="1007.3,353.3 1007.1,353.3 1007.6,312 1007.8,312 				"/>
			</g>
			<g>
				<rect x="1007.7" y="321" class="st4" width="26.7" height="0.2"/>
			</g>
			<g>
				<rect x="985.2" y="312.2" class="st4" width="0.2" height="40.6"/>
			</g>
			
				<linearGradient id="SVGID_2_" gradientUnits="userSpaceOnUse" x1="997.25" y1="48.8732" x2="997.25" y2="104.9771" gradientTransform="matrix(1 0 0 -1 0 402)">
				<stop  offset="0" style="stop-color:#FFB898"/>
				<stop  offset="0.9946" style="stop-color:#FFE2C0"/>
			</linearGradient>
			<polygon class="st7" points="1035.3,353.4 1037.3,295.9 957.2,294.3 957.8,353.6 960.7,353.5 959.8,314.9 1032.9,314.7 
				1032.2,354 			"/>
			<polygon class="st8" points="959.4,312.4 959.4,295.9 1036.5,297.1 1035,311.8 			"/>
			<polygon class="st9" points="964.3,303.9 964.3,306.4 1003.1,306.4 1003.1,304.2 			"/>
			<g>
				<polygon class="st4" points="924.2,353.3 922.7,282 923,282 924.5,353.3 				"/>
			</g>
			<g>
				<polygon class="st4" points="1064.9,353.5 1064.6,353.5 1068.8,283.2 1069,283.2 				"/>
			</g>
			<g>
				<polygon class="st4" points="1089.3,354 1089.1,354 1096.5,283.2 1096.7,283.2 				"/>
			</g>
			<polygon class="st10" points="910,282.3 914.5,335.2 942.2,334.4 942.2,282.3 			"/>
			<polygon class="st10" points="1047.9,283 1047.9,315.8 1055,316.4 1055.2,343.4 1080.5,343.4 1083.6,283.2 			"/>
			<polygon class="st10" points="1107,290 1105.1,323.5 1112.4,323.5 1115.2,290 			"/>
			<polygon class="st0" points="1124.7,267.1 1118.2,269.1 890.4,267.9 830,267.7 884.8,265.3 			"/>
			<polygon class="st11" points="897.6,340.7 895.8,303.9 915,303.9 915,340.7 			"/>
			<rect x="969.1" y="330" class="st11" width="8.5" height="2.8"/>
			<polygon class="st12" points="984,331.5 984.5,331.5 984.4,340.2 984.1,340.2 			"/>
			<g>
				<rect x="914.8" y="185.9" class="st0" width="0.5" height="79.4"/>
			</g>
			<g>
				
					<rect x="959.5" y="185.9" transform="matrix(1 -2.688065e-03 2.688065e-03 1 -0.6042 2.5807)" class="st0" width="0.5" height="80.3"/>
			</g>
			<g>
				<rect x="1004" y="184.7" class="st0" width="0.5" height="81.5"/>
			</g>
			<g>
				
					<rect x="1007.5" y="225" transform="matrix(2.339422e-02 -0.9997 0.9997 2.339422e-02 799.0339 1268.5012)" class="st0" width="82.5" height="0.5"/>
			</g>
			<g>
				
					<rect x="1051.7" y="224.9" transform="matrix(4.674914e-02 -0.9989 0.9989 4.674914e-02 817.4886 1306.9175)" class="st0" width="83.6" height="0.5"/>
			</g>
			<polygon class="st13" points="897.6,306.4 913.3,306.4 913.3,337.1 899.5,337.1 			"/>
			<g>
				<polygon class="st0" points="884.8,229.3 884.8,228.8 1127.2,226.5 1127.2,227 				"/>
			</g>
			<polygon class="st14" points="1032.2,354 1032.2,350.1 1113.8,348.3 1113.3,354 			"/>
			<polygon class="st14" points="960.6,350.8 892.2,349.6 892.3,353.5 960.7,353.5 			"/>
			<polygon class="st1" points="890.8,350.3 836.4,348.8 836.5,353.9 890.9,353.5 			"/>
			<polygon class="st15" points="1045.8,184 1047.9,264.2 1083.6,264.2 1086.9,184 			"/>
			<polygon class="st15" points="1112.9,183.2 1112.9,205.1 1125.8,205.1 1127.2,182.9 			"/>
			
				<radialGradient id="SVGID_3_" cx="1007.8" cy="284.6316" r="91.2643" gradientTransform="matrix(1 0 0 -1 0 402)" gradientUnits="userSpaceOnUse">
				<stop  offset="1.891890e-02" style="stop-color:#503B61"/>
				<stop  offset="1" style="stop-color:#472B55"/>
			</radialGradient>
			<polygon class="st16" points="1136,123.9 1136.7,116.8 878.9,110.8 878.9,118.9 			"/>
			<g>
				<polygon class="st17" points="1129.1,137 884.3,134.1 884.3,133.9 1129.1,136.7 				"/>
			</g>
			<g>
				<polygon class="st17" points="885.6,160.4 885.6,160.1 1127.2,155.6 1127.2,155.8 				"/>
			</g>
			<g>
				<polygon class="st17" points="886.3,180.7 886.3,180.5 1125.9,178.2 1126,178.4 				"/>
			</g>
			<polygon class="st18" points="929.1,134 925.1,159.5 946.1,159.1 952.4,134.9 			"/>
			<polygon class="st18" points="1025.4,179.3 1027.8,157.9 1030.1,157.9 1027.8,179.3 			"/>
			<polygon class="st19" points="1068.1,156.8 1070.5,136.2 1115.7,136.7 1112.9,156 			"/>
			<polygon class="st20" points="892.3,353.5 890.5,272.6 1119.3,271.3 1119.5,268.7 1124.7,267.1 884.8,265.3 881.9,186.3 
				886.5,186.3 884.4,129.1 1129.7,128.9 1129.9,126.7 1133.1,123.9 878.9,118.9 878.9,110.8 818.3,131.5 819.4,141 826.8,140.2 
				829.4,198.2 828.2,198.4 830.8,267.7 832.6,267.9 836.5,353.9 			"/>
			<polygon class="st20" points="1126.4,174.8 1091.6,174.7 1091.6,143.7 1093.5,142.5 1128.1,145.2 			"/>
			<polygon class="st0" points="1095.4,141 1093.5,142.5 1092.9,173.4 1126.5,173.4 1130,171.8 			"/>
			
				<radialGradient id="SVGID_4_" cx="1116.5264" cy="259.9053" r="24.8683" gradientTransform="matrix(1 0 0 -1 0 402)" gradientUnits="userSpaceOnUse">
				<stop  offset="1.891890e-02" style="stop-color:#503B61"/>
				<stop  offset="0.9804" style="stop-color:#472B55"/>
			</radialGradient>
			<polygon class="st21" points="1095.4,141 1094.6,171.8 1130,171.8 1133.1,141 			"/>
			
				<radialGradient id="SVGID_5_" cx="918.4265" cy="274.2697" r="40.0999" gradientTransform="matrix(1 0 0 -1 0 402)" gradientUnits="userSpaceOnUse">
				<stop  offset="1.891890e-02" style="stop-color:#503B61"/>
				<stop  offset="0.9804" style="stop-color:#472B55"/>
			</radialGradient>
			<polygon class="st22" points="884.3,125.9 944.3,127.2 942.8,176.1 886.3,176.1 			"/>
			<polygon class="st0" points="884.3,125.9 881.9,128.1 883.6,177.3 886.3,176.1 			"/>
			<polygon class="st20" points="938.8,176.1 936.2,178.8 886.3,179.5 886.2,176.1 			"/>
			<polygon class="st0" points="942.8,176.1 941.2,176.8 883.6,177.3 886.3,176.1 			"/>
			<g>
				<polygon class="st20" points="971.4,156.7 970.6,157.3 970.6,167.2 996.9,167.2 996.9,156.7 				"/>
				<polygon class="st0" points="972.6,155.7 971.4,156.7 972,165.8 997.6,165.8 999.3,164.8 				"/>
				
					<radialGradient id="SVGID_6_" cx="988.0547" cy="245.9657" r="10.7302" gradientTransform="matrix(1 0 0 -1 0 402)" gradientUnits="userSpaceOnUse">
					<stop  offset="1.891890e-02" style="stop-color:#503B61"/>
					<stop  offset="0.9804" style="stop-color:#472B55"/>
				</radialGradient>
				<polygon class="st23" points="972.6,155.7 972.6,164.8 999.3,164.8 999.8,155.7 				"/>
			</g>
		</g>
		<g>
			<polygon class="st17" points="685.1,236.6 640.2,252.1 643.3,353.3 683.1,353.3 			"/>
			
				<linearGradient id="SVGID_7_" gradientUnits="userSpaceOnUse" x1="764.4" y1="48.1" x2="764.4" y2="213.8" gradientTransform="matrix(1 0 0 -1 0 402)">
				<stop  offset="0" style="stop-color:#FFA940"/>
				<stop  offset="0.9946" style="stop-color:#FFC24E"/>
			</linearGradient>
			<polygon class="st24" points="683.1,353.3 677.9,188.2 850.9,193.6 836.8,353.9 			"/>
			<polygon class="st25" points="677.9,188.2 671.7,192.7 679,353.3 683.1,353.3 			"/>
			<polygon class="st26" points="837.2,349.5 769.4,349.5 769.4,311.1 840.4,311.8 			"/>
			<g>
				<polygon class="st25" points="692,353.5 690.5,311.8 766.1,312.5 763.9,353.9 				"/>
				<polygon class="st26" points="692,353.5 690.6,314.2 756.2,315 754.6,353.8 				"/>
				<polygon class="st5" points="692,353.5 752.5,353.3 753.4,316.5 690.6,315.1 				"/>
				<polygon class="st26" points="711,315.7 710.9,352.8 711.3,352.8 711.4,315.7 				"/>
				<polygon class="st26" points="710.8,353.6 710.9,342.5 752.7,343.9 752.5,353.3 				"/>
				<polygon class="st27" points="711,319 753.3,318.7 752.5,319.6 711.4,319.4 				"/>
				<polygon class="st27" points="711.1,321.3 753.4,321.1 752.5,322 711.5,321.8 				"/>
				<polygon class="st27" points="711.2,323.7 753.4,323.5 752.6,324.4 711.5,324.2 				"/>
				<polygon class="st27" points="711.2,326.1 753.5,325.9 752.7,326.8 711.6,326.5 				"/>
				<polygon class="st27" points="711.3,328.5 753.5,328.3 752.7,329.2 711.7,328.9 				"/>
				<polygon class="st27" points="711.4,330.9 753.6,330.7 752.8,331.6 711.8,331.3 				"/>
				<polygon class="st27" points="711.5,333.3 753.7,333.1 752.8,334 711.8,333.7 				"/>
				<polygon class="st27" points="711.7,335.2 753.7,335.5 752.9,336.4 711.9,336.1 				"/>
				<polygon class="st27" points="711.6,338 753.8,337.9 753,338.8 712,338.4 				"/>
				<polygon class="st27" points="711.7,340.4 753.8,340.3 753,341.2 711.9,341 				"/>
				<polygon class="st26" points="710.8,353.6 692,353.5 690.6,315.1 711,315.7 				"/>
				<polygon class="st5" points="709.5,352.8 709.7,316.2 692.2,315.8 692.9,352.8 				"/>
				<polygon class="st28" points="697.2,330.9 703.9,331.3 704,334.4 697.3,334.1 				"/>
				<g>
					<polygon class="st29" points="720.1,318 738.9,317.3 736.9,342.5 720.8,342.1 					"/>
					<polygon class="st20" points="723.9,322.1 724.3,336.5 733.9,336.2 734.9,322.1 					"/>
					<polygon class="st20" points="722.7,319.3 722.7,320.4 734.9,320.3 734.8,318.8 					"/>
					<polygon class="st30" points="725.7,340 725.7,340.4 730.7,340.7 730.7,340.3 					"/>
				</g>
			</g>
			<polygon class="st5" points="770.6,311.8 840.4,312.6 837.2,348.8 770.6,348.8 			"/>
			
				<linearGradient id="SVGID_8_" gradientUnits="userSpaceOnUse" x1="692.5" y1="108.05" x2="861.6" y2="108.05" gradientTransform="matrix(1 0 0 -1 0 402)">
				<stop  offset="0" style="stop-color:#FFB898"/>
				<stop  offset="0.9946" style="stop-color:#FFE2C0"/>
			</linearGradient>
			<polygon class="st31" points="692.5,301.9 692.5,284 861.6,284 858.3,303.9 			"/>
			<polygon class="st17" points="692.5,284 682.2,287 682.9,303.1 692.5,301.9 			"/>
			<polygon class="st25" points="682.9,303.1 858.3,303.9 692.5,301.9 			"/>
			<g>
				<polygon class="st17" points="786.1,348.8 785.9,348.8 788.9,312 789.2,312 				"/>
			</g>
			<g>
				<polygon class="st17" points="804.1,348.8 803.9,348.8 805.7,312.2 805.9,312.2 				"/>
			</g>
			<g>
				<polygon class="st17" points="823.8,348.8 823.5,348.8 825.3,312.4 825.6,312.4 				"/>
			</g>
			<polygon class="st5" points="696,298.5 696,287.1 854.9,287.1 853.7,300.9 			"/>
			<polygon class="st17" points="854.9,287.1 853.6,287.1 852.8,300.8 853.7,300.9 			"/>
			<polygon class="st10" points="770.6,331.2 777.9,331.6 778.9,346.7 789.9,346.7 790.7,313.5 827.6,313.3 826.4,335.8 
				838.3,336.4 840.1,313.5 770.6,313.5 			"/>
			<polygon class="st10" points="709.7,324 699.5,325.9 700.9,340.3 709.6,338.8 			"/>
			<polygon class="st20" points="841.2,303.7 840.1,313.5 766.1,312.5 763.9,353.9 746.5,353.8 743.5,319.9 690.6,320.4 
				690.6,315.1 681.9,314 683.1,353.3 643.3,353.3 640.2,252.1 673.9,240.5 671.7,192.7 677.9,188.2 681,287.3 692.5,284 
				692.5,301.9 			"/>
			<polygon class="st32" points="651.5,267.2 652.2,275.5 663,274.7 663,265.3 			"/>
			<polygon class="st5" points="653.9,275.3 653,267 663,265.3 663,274.7 			"/>
			<g>
				<polygon class="st26" points="772.5,267.7 774.4,207.4 849.7,207.2 844.4,267.1 				"/>
				<polygon class="st5" points="849.6,208.3 775.4,208.7 773.5,266.3 844.5,266.3 				"/>
				<polygon class="st5" points="849.6,208.3 775.4,208.7 773.5,266.3 844.5,266.3 				"/>
				<g>
					<polygon class="st17" points="791.6,266.3 791.3,266.3 795.1,208.6 795.3,208.6 					"/>
				</g>
				<g>
					<polygon class="st17" points="811.2,266.3 811,266.3 815.2,208.5 815.5,208.5 					"/>
				</g>
				<g>
					<polygon class="st17" points="835.2,266.3 834.9,266.3 837.4,208.5 837.7,208.5 					"/>
				</g>
				<polygon class="st10" points="845.5,255.6 832.4,254.6 835,212.9 798.9,215.1 796.4,243.2 774.8,240.5 775.4,208.7 849.6,208.3 
									"/>
			</g>
			<rect x="727.5" y="293.6" class="st33" width="0.8" height="0.8"/>
			<rect x="811.7" y="293.6" class="st33" width="0.8" height="0.8"/>
			<rect x="842.5" y="293.6" class="st33" width="0.8" height="0.8"/>
			<rect x="749.8" y="293.6" class="st33" width="0.8" height="0.8"/>
			<rect x="780.5" y="293.6" class="st33" width="0.8" height="0.8"/>
			<g>
				<polygon class="st34" points="648.1,322.6 630.3,335.2 630.3,338.8 664.8,337.9 674.6,337.9 674.6,321.6 				"/>
				<polygon class="st34" points="627.3,338.3 627.3,340.3 662.6,339.3 675.5,338.8 675.5,336.4 653.6,337.9 				"/>
				<polygon class="st34" points="629.4,340.3 631.9,353.3 673,353.3 674.6,338.8 				"/>
				<polygon class="st35" points="635.1,334.4 654,334 655.7,332.6 637.6,333.1 				"/>
				<polygon class="st36" points="653.6,337.9 653.6,339.5 675.5,338.8 675.5,336.4 				"/>
				<path class="st20" d="M674.6,336.4v-14.8l-26.5,1l-17.8,12.7v3h-3v2h2.1l2.5,13h21.7v-13l14.4-0.8v13.8h5l1.6-14.5h0.9v-2.4
					L674.6,336.4L674.6,336.4z M672.7,338.8l-19.1,0.7v-1.6l0.7-0.1v-2l14.7-11.9v12.9l3.7-0.3L672.7,338.8L672.7,338.8z"/>
			</g>
		</g>
		<g>
			<polygon class="st37" points="180.7,156.9 415.7,160.9 650.1,130.2 288.7,119.5 			"/>
			
				<linearGradient id="SVGID_9_" gradientUnits="userSpaceOnUse" x1="465.5" y1="51.3789" x2="465.5" y2="269.2513" gradientTransform="matrix(1 0 0 -1 0 402)">
				<stop  offset="0" style="stop-color:#FFB898"/>
				<stop  offset="0.9946" style="stop-color:#FFE2C0"/>
			</linearGradient>
			<polygon class="st38" points="306.5,353.9 292.7,122.2 638.3,131.9 622.2,353.9 			"/>
			<polygon class="st17" points="292.7,122.2 190.4,154.8 214,353.9 306.5,353.9 			"/>
			
				<linearGradient id="SVGID_10_" gradientUnits="userSpaceOnUse" x1="470" y1="272.05" x2="470" y2="290.2449" gradientTransform="matrix(1 0 0 -1 0 402)">
				<stop  offset="2.159160e-03" style="stop-color:#FF2F42"/>
				<stop  offset="1" style="stop-color:#F42527"/>
			</linearGradient>
			<polygon class="st39" points="650.1,130.2 651.3,123.7 288.7,110.9 288.7,119.5 			"/>
			<polygon class="st37" points="288.7,110.9 178.1,150.8 180.7,156.9 288.7,119.5 			"/>
			<polygon class="st40" points="303,353.9 298.9,277.3 648.1,150.3 644.2,188.2 638.3,188.2 635.3,225.3 640.4,225.3 627,353.9 			
				"/>
			<polygon class="st37" points="298.9,277.3 194.7,220.4 210.2,353.9 303,353.9 			"/>
			<polygon class="st41" points="198.2,220.4 194.7,220.4 298.9,277.3 303,275.7 			"/>
			<polygon class="st42" points="648.1,150.3 638.3,150.3 300.4,274.3 298.9,277.3 			"/>
			<g>
				<g>
					<polygon class="st17" points="333.5,262.1 330.9,123.3 331.2,123.3 333.8,262.1 					"/>
				</g>
				<g>
					<polygon class="st17" points="385,243.2 380.6,124.7 380.8,124.7 385.3,243.2 					"/>
				</g>
				<g>
					<polygon class="st17" points="426.1,228.2 425.9,228.2 428.2,126 428.4,126 					"/>
				</g>
				<g>
					<rect x="473.4" y="127.7" class="st17" width="0.2" height="83.1"/>
				</g>
				<g>
					<polygon class="st17" points="520.6,193.6 520.4,193.6 521,128.6 521.2,128.6 					"/>
				</g>
				<g>
					<polygon class="st17" points="556.6,180.4 556.3,180.4 557.6,129.6 557.8,129.6 					"/>
				</g>
				<g>
					<polygon class="st17" points="599.9,164.5 599.6,164.5 602.3,130.2 602.6,130.2 					"/>
				</g>
				<g>
					
						<rect x="440.9" y="21" transform="matrix(1.642598e-02 -0.9999 0.9999 1.642598e-02 266.9423 605.0589)" class="st17" width="0.3" height="291.6"/>
				</g>
				<g>
					
						<rect x="397.9" y="100" transform="matrix(7.477209e-03 -1 1 7.477209e-03 194.3389 597.3237)" class="st17" width="0.3" height="201.5"/>
				</g>
				<g>
					<polygon class="st17" points="299.6,238.2 299.6,238 404,236.2 404,236.4 					"/>
				</g>
			</g>
			<g>
				<g>
					<polygon class="st43" points="340.3,353.9 336.9,263.5 333.6,262.2 333.7,262 337.2,263.3 337.2,263.4 340.6,353.9 					"/>
				</g>
				<g>
					<polygon class="st43" points="391,353.9 390,244.2 385.1,243.3 385.2,243.1 390.3,244 390.3,244.1 391.2,353.9 					"/>
				</g>
				<g>
					<polygon class="st43" points="431,353.9 430.7,353.9 430.7,229.2 425.8,228.4 425.8,228.1 431,229 					"/>
				</g>
				<g>
					<polygon class="st43" points="473.6,353.9 473.4,353.9 478.4,211.7 473.5,210.9 473.5,210.7 478.7,211.5 478.7,211.6 					"/>
				</g>
				<g>
					<polygon class="st43" points="516.7,353.9 516.5,353.9 525.4,194.5 520.5,193.7 520.5,193.4 525.7,194.3 525.7,194.4 					"/>
				</g>
				<g>
					<polygon class="st43" points="549.3,353.9 549.1,353.9 561.4,181.3 556.5,180.5 556.5,180.2 561.7,181.1 561.7,181.2 					"/>
				</g>
				<g>
					<polygon class="st43" points="592.7,353.9 592.5,353.9 604.8,165.4 599.9,164.6 599.9,164.3 605.1,165.2 605.1,165.3 					"/>
				</g>
				<g>
					<polygon class="st43" points="298.9,277.4 298.9,277.1 635.3,273.6 635.3,273.8 					"/>
				</g>
				<g>
					<polygon class="st43" points="430.9,229.2 430.8,228.9 640.4,225.2 640.4,225.4 					"/>
				</g>
				<g>
					<polygon class="st43" points="535.6,192.8 535.6,192.6 644.2,188.1 644.2,188.3 					"/>
				</g>
				<g>
					
						<rect x="301.4" y="320.5" transform="matrix(0.9997 -2.359394e-02 2.359394e-02 0.9997 -7.4354 11.0885)" class="st43" width="329.6" height="0.3"/>
				</g>
			</g>
			<g>
				<polygon class="st44" points="404.9,353.8 403.2,311.8 520.6,311.8 516.6,353.9 				"/>
				<polygon class="st41" points="403.2,311.8 515,311.8 511.4,353.8 404.9,353.8 				"/>
				<polygon class="st5" points="405,353.5 511,353.7 514.1,313 403.3,313 				"/>
				<g>
					<g>
						
							<linearGradient id="SVGID_11_" gradientUnits="userSpaceOnUse" x1="403.1" y1="68.7" x2="514.4" y2="68.7" gradientTransform="matrix(1 0 0 -1 0 402)">
							<stop  offset="5.405410e-03" style="stop-color:#FFE2C0"/>
							<stop  offset="1" style="stop-color:#FFB898"/>
						</linearGradient>
						<path class="st45" d="M511.2,353.9H511l-106.2-0.2l-1.7-41h111.3v0.3L511.2,353.9z M405.2,353.2l105.5,0.2l3-40.1H403.5
							L405.2,353.2z"/>
					</g>
					<g>
						
							<linearGradient id="SVGID_12_" gradientUnits="userSpaceOnUse" x1="487.437" y1="68.55" x2="490.6997" y2="68.55" gradientTransform="matrix(1 0 0 -1 0 402)">
							<stop  offset="5.405410e-03" style="stop-color:#FFE2C0"/>
							<stop  offset="1" style="stop-color:#FFB898"/>
						</linearGradient>
						<polygon class="st46" points="487.9,353.9 487.4,353.8 490.2,313 490.7,313 						"/>
					</g>
					<g>
						
							<linearGradient id="SVGID_13_" gradientUnits="userSpaceOnUse" x1="427.3359" y1="68.85" x2="429.0513" y2="68.85" gradientTransform="matrix(1 0 0 -1 0 402)">
							<stop  offset="5.405410e-03" style="stop-color:#FFE2C0"/>
							<stop  offset="1" style="stop-color:#FFB898"/>
						</linearGradient>
						<polygon class="st47" points="428.6,353.3 427.3,313 427.8,313 429.1,353.3 						"/>
					</g>
					<g>
						
							<linearGradient id="SVGID_14_" gradientUnits="userSpaceOnUse" x1="404.3" y1="67.25" x2="428.2" y2="67.25" gradientTransform="matrix(1 0 0 -1 0 402)">
							<stop  offset="5.405410e-03" style="stop-color:#FFE2C0"/>
							<stop  offset="1" style="stop-color:#FFB898"/>
						</linearGradient>
						<rect x="404.3" y="334.5" class="st48" width="23.9" height="0.5"/>
					</g>
					<g>
						
							<linearGradient id="SVGID_15_" gradientUnits="userSpaceOnUse" x1="489.064" y1="67.25" x2="511.7368" y2="67.25" gradientTransform="matrix(1 0 0 -1 0 402)">
							<stop  offset="5.405410e-03" style="stop-color:#FFE2C0"/>
							<stop  offset="1" style="stop-color:#FFB898"/>
						</linearGradient>
						<rect x="489.1" y="334.5" class="st49" width="22.7" height="0.5"/>
					</g>
					<g>
						
							<linearGradient id="SVGID_16_" gradientUnits="userSpaceOnUse" x1="446.7168" y1="68.65" x2="447.4014" y2="68.65" gradientTransform="matrix(1 0 0 -1 0 402)">
							<stop  offset="5.405410e-03" style="stop-color:#FFE2C0"/>
							<stop  offset="1" style="stop-color:#FFB898"/>
						</linearGradient>
						<polygon class="st50" points="447.2,353.7 446.7,353.7 446.9,313 447.4,313 						"/>
					</g>
					<g>
						
							<linearGradient id="SVGID_17_" gradientUnits="userSpaceOnUse" x1="470.603" y1="68.65" x2="471.2505" y2="68.65" gradientTransform="matrix(1 0 0 -1 0 402)">
							<stop  offset="5.405410e-03" style="stop-color:#FFE2C0"/>
							<stop  offset="1" style="stop-color:#FFB898"/>
						</linearGradient>
						<polygon class="st51" points="471.1,353.7 470.6,353.7 470.8,313 471.3,313 						"/>
					</g>
					<polygon class="st12" points="428.8,353.3 405,353.5 404.3,334.7 428.2,334.7 					"/>
					<polygon class="st12" points="511,353.7 487.7,353.8 489.1,334.7 512.4,334.7 					"/>
				</g>
				<polygon class="st52" points="432.9,333.2 432.4,329.4 443.9,328.5 443.9,332.5 				"/>
			</g>
			<polygon class="st5" points="209.8,208.2 207.3,181.4 295.2,164.5 473.5,167.4 473.5,201.5 297.3,200 			"/>
			<polygon class="st6" points="295.2,164.5 297.3,200 473.5,201.5 473.5,167.4 			"/>
			<polygon class="st17" points="473.5,167.4 471.8,167.4 471.8,201.4 473.5,201.5 			"/>
			<polygon class="st53" points="207.3,181.4 209.5,180.9 211.7,208 209.8,208.2 			"/>
			<polygon class="st10" points="296.1,180.4 371.2,188.2 373.9,200.8 388.3,200.7 388.3,178 408.9,174.4 408.9,196 412.9,196.2 
				411.8,169.2 457.8,169.2 455.2,201.1 471.8,201.4 471.8,168.2 295.3,166.9 			"/>
			<polygon class="st5" points="635.3,225.3 558.3,226.8 560.8,191.7 638.3,188.2 			"/>
			<polygon class="st6" points="558.3,226.8 560.6,194.6 638,192.7 635.3,225.3 			"/>
			<polygon class="st10" points="560.6,194.6 604.9,193.6 601.1,224 604.9,224 607.3,209.7 636.5,210.8 638,192.7 			"/>
			<polygon class="st54" points="554.9,274.6 551.7,318.6 595,317.5 597.5,274.5 			"/>
			<polygon class="st54" points="430.8,229.1 430.8,275 475.7,275.9 478,228.2 			"/>
			<polygon class="st55" points="523.7,227.4 520.8,274.5 554.9,274.6 558.3,226.8 			"/>
			<polygon class="st18" points="473.5,127.7 474.1,167.3 520.5,168.2 521.1,128.6 			"/>
			<polygon class="st18" points="332.4,200.3 333,237.2 384.9,236.3 383.6,200.8 			"/>
			<polygon class="st55" points="339.3,323.7 340.5,353.3 391.1,353.9 391.1,322.4 			"/>
			<polygon class="st56" points="396.1,239.2 400.1,240.5 541.7,189 540.2,186.3 			"/>
			
				<linearGradient id="SVGID_18_" gradientUnits="userSpaceOnUse" x1="311" y1="105.55" x2="657.6" y2="105.55" gradientTransform="matrix(1 0 0 -1 0 402)">
				<stop  offset="0" style="stop-color:#FFB898"/>
				<stop  offset="0.9946" style="stop-color:#FFE2C0"/>
			</linearGradient>
			<polygon class="st57" points="657.6,291 657.6,298.5 311,301.9 311,296.5 			"/>
			<polygon class="st17" points="311,296.5 300.1,299.3 300.3,303.1 311,301.9 			"/>
			<polygon class="st58" points="657.6,298.5 632.4,301.9 300.3,303.1 311,301.9 			"/>
			<polygon class="st20" points="403.5,325.4 404.3,341.2 518.1,338.1 519,328.7 629.8,327.2 632.4,301.9 657.6,298.5 311,301.9 
				300.3,303.1 298.9,277.3 301.7,273.7 292.7,128.6 638,135.7 638.3,131.9 292.7,122.2 288.7,119.5 288.7,110.9 178.1,150.8 
				180.7,156.9 190.6,156.9 198.2,220.4 194.7,220.4 210.2,353.9 303,353.9 301.7,329.5 			"/>
			<g>
				<polygon class="st17" points="364.4,302.7 367.2,353.9 376,353.9 375.3,301.3 				"/>
				
					<linearGradient id="SVGID_19_" gradientUnits="userSpaceOnUse" x1="377.6" y1="48.1" x2="377.6" y2="100.8" gradientTransform="matrix(1 0 0 -1 0 402)">
					<stop  offset="0" style="stop-color:#FFB898"/>
					<stop  offset="0.9946" style="stop-color:#FFE2C0"/>
				</linearGradient>
				<polygon class="st59" points="376,353.9 379.5,353.9 379.9,301.2 375.3,301.3 				"/>
			</g>
			<g>
				<polygon class="st17" points="550.6,302.2 549.4,353.9 558.2,353.9 561.5,301.3 				"/>
				
					<linearGradient id="SVGID_20_" gradientUnits="userSpaceOnUse" x1="562.1" y1="48.1" x2="562.1" y2="100.8" gradientTransform="matrix(1 0 0 -1 0 402)">
					<stop  offset="0" style="stop-color:#FFB898"/>
					<stop  offset="0.9946" style="stop-color:#FFE2C0"/>
				</linearGradient>
				<polygon class="st60" points="558.2,353.9 561.6,353.9 566,301.2 561.5,301.3 				"/>
				<polygon class="st20" points="565.6,305.8 561.2,305.2 550,328.7 550.6,302.2 561.5,301.3 566,301.2 				"/>
				<polygon class="st20" points="379.9,302.8 375.3,302.9 365.7,326.9 364.4,302.7 375.3,301.3 379.9,301.2 				"/>
			</g>
			<g>
				<polygon class="st20" points="602.4,251.6 602.4,275.5 635.2,275.5 637.4,251.6 				"/>
				<polygon class="st61" points="612.1,243.2 612.1,267.1 643.6,267.1 645.1,243.2 				"/>
				<polygon class="st62" points="604.9,267.9 612.1,267.1 612.1,243.2 604.9,244.7 				"/>
				<polygon class="st63" points="604.9,267.9 635.9,268.2 643.6,267.1 612.1,267.1 				"/>
				<circle class="st64" cx="622.5" cy="255.6" r="8.5"/>
				<polygon class="st65" points="631.5,262.9 631.9,247 644,247 642.9,262.9 				"/>
				<g>
					<rect x="631.9" y="251" class="st64" width="11" height="0.6"/>
					<rect x="631.9" y="252.6" class="st64" width="11" height="0.6"/>
					<rect x="631.9" y="254.3" class="st64" width="11" height="0.6"/>
					<rect x="631.9" y="256" class="st64" width="11" height="0.6"/>
					<rect x="631.9" y="257.6" class="st64" width="11" height="0.6"/>
					<rect x="631.9" y="259.3" class="st64" width="11" height="0.6"/>
				</g>
			</g>
			<polygon class="st14" points="561.9,351.1 588.1,351.2 591,306.4 565.6,305.8 			"/>
			<polygon class="st66" points="566.4,307.3 589.4,307.7 586.5,349.8 564.4,349.8 			"/>
			<polygon class="st67" points="588.4,322.2 565,338.3 564.4,349.8 586.5,349.8 			"/>
			<polygon class="st68" points="588.7,317.7 565.4,329.2 565,338.3 588.4,322.2 			"/>
		</g>
	</g>
</g>
<g>
	<path d="M748.1,167.7c0.4-0.4,1-0.6,1.6-0.6c0.6,0,1.1,0.2,1.6,0.6s0.6,0.9,0.6,1.6l-0.6,19.6c0,0.4,0.2,0.6,0.6,0.6l0.8,0l0,1.6
		l-0.8,0c-0.7,0-1.2-0.2-1.6-0.6c-0.4-0.4-0.6-0.9-0.6-1.6l0.6-19.6c0-0.4-0.2-0.6-0.6-0.6c-0.4,0-0.6,0.2-0.6,0.6l-0.4,15.4
		c0,1-0.4,1.9-1.1,2.6c-0.7,0.7-1.6,1-2.6,0.9c-1,0-1.9-0.4-2.6-1.1c-0.7-0.7-1-1.5-0.9-2.6l0.3-9.8c0-0.4-0.2-0.6-0.6-0.6
		c-0.4,0-0.6,0.2-0.6,0.6l-0.3,9.8c0,1-0.4,1.9-1.1,2.6c-0.7,0.7-1.5,1-2.6,0.9c-1.1,0-1.9-0.4-2.6-1.1c-0.7-0.7-1-1.5-0.9-2.6
		l0.4-15.4c0-0.4-0.2-0.6-0.6-0.6c-0.4,0-0.6,0.2-0.6,0.6l-0.6,19.6c0,0.6-0.2,1.1-0.6,1.6c-0.4,0.5-0.9,0.6-1.6,0.6l-0.8,0l0-1.6
		l0.8,0c0.4,0,0.6-0.2,0.6-0.6l0.6-19.6c0-0.6,0.2-1.2,0.6-1.6c0.4-0.4,0.9-0.6,1.6-0.6c0.6,0,1.2,0.2,1.6,0.6
		c0.4,0.4,0.6,0.9,0.6,1.6l-0.4,15.4c0,0.6,0.2,1.1,0.6,1.5c0.4,0.4,0.9,0.6,1.5,0.6c0.6,0,1.1-0.2,1.5-0.6s0.6-0.9,0.6-1.5l0.3-9.8
		c0-0.6,0.2-1.2,0.6-1.6c0.4-0.4,0.9-0.6,1.6-0.6c0.7,0,1.2,0.2,1.6,0.6c0.4,0.4,0.6,0.9,0.6,1.6l-0.3,9.8c0,0.6,0.2,1.1,0.6,1.5
		c0.4,0.4,0.9,0.6,1.5,0.6c1.3,0,2-0.6,2.1-1.9l0.4-15.4C747.4,168.6,747.6,168.1,748.1,167.7z"/>
	<path d="M769.4,167.7c0.6,0,1.2,0.2,1.6,0.6c0.4,0.4,0.6,0.9,0.6,1.6c0,0.6-0.2,1.2-0.6,1.6c-0.4,0.4-1,0.6-1.6,0.6l-8.4-0.2
		c-0.6,0-1.1,0.2-1.5,0.6c-0.4,0.4-0.6,0.9-0.6,1.5s0.2,1.1,0.6,1.5c0.4,0.4,0.9,0.6,1.5,0.6l5.6,0.2c0.6,0,1.2,0.2,1.6,0.6
		c0.4,0.4,0.6,0.9,0.6,1.6s-0.2,1.2-0.6,1.6c-0.4,0.4-0.9,0.6-1.6,0.6l-5.6-0.2c-0.6,0-1.1,0.2-1.5,0.6s-0.6,0.9-0.6,1.5
		c0,1.3,0.6,2,1.9,2.1l8.4,0.2c0.6,0,1.2,0.2,1.6,0.6c0.4,0.4,0.6,1,0.6,1.6c0,0.6-0.2,1.1-0.6,1.6c-0.4,0.4-1,0.6-1.6,0.6l-9.8-0.3
		c-0.4,0-0.6,0.2-0.6,0.6c0,0.4,0.2,0.6,0.6,0.6l13.4,0.4l0,1.6l-13.4-0.4c-0.6,0-1.2-0.2-1.6-0.6c-0.4-0.4-0.6-0.9-0.6-1.6
		c0-0.6,0.2-1.2,0.6-1.6s0.9-0.6,1.6-0.6l9.8,0.3c0.4,0,0.6-0.2,0.6-0.6s-0.2-0.6-0.6-0.6l-8.4-0.2c-1,0-1.9-0.4-2.6-1.1
		c-0.7-0.7-1-1.6-0.9-2.6c0-1,0.4-1.9,1.1-2.6s1.5-1,2.6-0.9l5.6,0.2c0.4,0,0.6-0.2,0.6-0.6c0-0.4-0.2-0.6-0.6-0.6l-5.6-0.2
		c-1,0-1.9-0.4-2.6-1.1c-0.7-0.7-1-1.5-0.9-2.6c0-1,0.4-1.9,1.1-2.6c0.7-0.7,1.5-1,2.6-0.9l8.4,0.2c0.4,0,0.6-0.2,0.6-0.6
		s-0.2-0.6-0.6-0.6l-13.2-0.4l-0.6,20.2c0,0.6-0.2,1.2-0.6,1.6c-0.4,0.4-0.9,0.6-1.6,0.6l-0.8,0l0-1.6l0.8,0c0.4,0,0.6-0.2,0.6-0.6
		l0.6-21.8l14.9,0.4L769.4,167.7z"/>
	<path d="M786.4,168.2c1.2,0,2.2,0.4,3.1,1.1c1.2,0.9,1.8,2.3,1.8,4.1c-0.1,1.8-0.7,3.1-2,3.9c-0.9,0.7-2,0.9-3.1,0.9l-7-0.2
		c-0.4,0-0.6,0.2-0.6,0.6c0,0.4,0.2,0.6,0.6,0.6l7,0.2c1.2,0,2.2,0.4,3.1,1.1c1.2,0.9,1.8,2.3,1.8,4.1c-0.1,1.8-0.7,3.1-2,3.9
		c-0.9,0.7-2,0.9-3.1,0.9l-7-0.2c-0.4,0-0.6,0.2-0.6,0.6s0.2,0.6,0.6,0.6l14.8,0.4l0,1.6l-14.8-0.4c-0.6,0-1.2-0.2-1.6-0.6
		c-0.4-0.4-0.6-0.9-0.6-1.6c0-0.6,0.2-1.2,0.6-1.6s0.9-0.6,1.6-0.6l7,0.2c0.6,0,1.2-0.2,1.8-0.4c1.1-0.6,1.6-1.6,1.7-2.9
		s-0.4-2.4-1.5-2.9c-0.6-0.3-1.2-0.5-1.8-0.6l-7-0.2c-0.6,0-1.2-0.2-1.6-0.6c-0.4-0.4-0.6-0.9-0.6-1.6c0-0.6,0.2-1.1,0.6-1.6
		c0.4-0.5,1-0.6,1.6-0.6l7,0.2c0.6,0,1.2-0.2,1.8-0.4c1.1-0.6,1.6-1.5,1.7-2.9c0-1.4-0.4-2.4-1.5-2.9c-0.6-0.3-1.2-0.5-1.8-0.6
		l-10.4-0.3l-0.6,20.2c0,0.6-0.2,1.2-0.6,1.6c-0.4,0.4-0.9,0.6-1.6,0.6l-0.8,0l0-1.6l0.8,0c0.4,0,0.6-0.2,0.6-0.6l0.6-21.8
		L786.4,168.2z"/>
</g>
<g>
	<path d="M899.4,89.3c1.4-0.9,2.9-1.3,4.5-1.3c1.6,0,3.1,0.6,4.4,1.6c1.7,1.3,2.5,3.3,2.4,5.8l0,0.7c0,0.6-0.2,1.2-0.7,1.6
		c-0.4,0.4-1,0.6-1.6,0.6c-0.6,0-1.2-0.2-1.6-0.7c-0.4-0.4-0.6-1-0.6-1.6l0-0.7c0-1.1-0.4-1.9-1.2-2.4c-0.5-0.3-0.9-0.4-1.4-0.4
		c-0.5,0-1,0.1-1.5,0.3c-0.9,0.4-1.3,1.2-1.3,2.3c0,1.1,0.4,1.9,1.2,2.3c0.5,0.3,1,0.4,1.5,0.4c1.7,0.1,3.1,0.6,4.4,1.6
		c1.7,1.3,2.5,3.2,2.4,5.7c-0.1,2.4-1,4.2-2.6,5.4l3.9,0.1l-0.1,1.6l-8.5-0.2l0.1-1.6c1,0,1.9-0.2,2.8-0.6c1.8-0.9,2.7-2.4,2.8-4.7
		c0.1-2.3-0.8-3.9-2.5-4.9c-0.7-0.4-1.6-0.7-2.9-0.8c-2.8-0.4-4.2-1.8-4.1-4.4c0-1.3,0.5-2.3,1.3-3.1c0.8-0.8,1.9-1.2,3.1-1.1
		c1.3,0,2.3,0.5,3.1,1.3c0.8,0.8,1.1,1.9,1.1,3.1l0,0.7c0,0.4,0.2,0.6,0.6,0.6s0.6-0.2,0.6-0.6l0-0.7c0.1-2.3-0.8-3.9-2.5-4.9
		c-0.9-0.5-1.8-0.8-2.8-0.8c-1,0-1.9,0.2-2.9,0.6c-1.8,0.9-2.7,2.4-2.8,4.7c-0.1,2.3,0.8,3.9,2.5,4.9c0.9,0.5,1.8,0.8,2.8,0.8
		c1.2,0,2.3,0.5,3,1.3c0.8,0.8,1.2,1.9,1.1,3.1c0,1.3-0.5,2.3-1.3,3.1c-0.8,0.8-1.9,1.2-3.1,1.1c-1.3,0-2.3-0.5-3.1-1.3
		c-0.8-0.8-1.2-1.9-1.1-3.1l0-1.4c0-0.4-0.2-0.6-0.6-0.6c-0.4,0-0.6,0.2-0.6,0.6l-0.2,6.3c0,0.6-0.2,1.1-0.7,1.5
		c-0.4,0.4-1,0.6-1.6,0.6l-0.8,0l0.1-1.6l0.8,0c0.4,0,0.6-0.2,0.6-0.6l0.2-6.3c0-0.7,0.2-1.2,0.7-1.6c0.4-0.4,0.9-0.6,1.6-0.5
		c0.7,0,1.2,0.2,1.6,0.7c0.4,0.4,0.6,0.9,0.5,1.6l0,1.4c0,1.1,0.4,1.9,1.2,2.4c0.5,0.3,0.9,0.4,1.4,0.4c0.5,0,1-0.1,1.5-0.3
		c0.9-0.4,1.3-1.2,1.3-2.3c0-1.1-0.4-1.9-1.2-2.3c-0.5-0.3-0.9-0.4-1.4-0.4c-1.7-0.1-3.1-0.6-4.4-1.6c-1.7-1.3-2.5-3.2-2.5-5.7
		C896.6,92.4,897.6,90.6,899.4,89.3z"/>
	<path d="M916.8,91.3c2.1-2,4.7-3,7.6-3c3,0.1,5.5,1.2,7.5,3.2c2,2.1,3,4.7,3,7.7c-0.1,2.5-0.9,4.7-2.5,6.6
		c-1.7,1.9-3.7,3.1-6.2,3.5l0,1.5l9.9,0.2l-0.1,1.6l-11.5-0.3l0.1-4.4l0.7-0.1c2.2-0.2,4.1-1.2,5.7-2.8c1.5-1.7,2.3-3.6,2.4-5.9
		c0.1-2.5-0.7-4.7-2.4-6.5c-1.7-1.8-3.8-2.8-6.4-2.8c-2.5-0.1-4.7,0.7-6.5,2.4c-1.8,1.7-2.8,3.8-2.8,6.3c-0.1,2.2,0.6,4.2,2,6
		s3.2,2.8,5.5,3.2l0.7,0.1l-0.1,4.4l-11.5-0.3l0.1-1.6l9.9,0.2l0-1.5c-2.4-0.6-4.4-1.9-6-3.9c-1.5-2-2.2-4.3-2.3-6.8
		C913.5,95.8,914.7,93.3,916.8,91.3z"/>
	<path d="M942.5,90.2c1.6-0.7,3.2-1.1,4.7-1.1c1.5,0,3.1,0.5,4.6,1.3c3,1.6,4.4,4.4,4.4,8.2c0,0.6-0.2,1.1-0.7,1.5
		c-0.4,0.4-1,0.6-1.6,0.6c-0.6,0-1.2-0.2-1.5-0.7c-0.3-0.5-0.6-1-0.6-1.6c0-0.8-0.2-1.7-0.6-2.5c-0.7-1.6-2.1-2.4-4.1-2.5
		c-2-0.1-3.4,0.7-4.2,2.2c-0.4,0.8-0.7,1.6-0.7,2.5l-0.1,2.8c0,0.8,0.2,1.7,0.5,2.5c0.7,1.6,2.1,2.4,4.1,2.4l4.3,0.1
		c1.2,0,2.2,0.4,3.1,1.1c1.2,0.9,1.8,2.3,1.7,4c0,0.4,0.2,0.6,0.6,0.6l0.8,0l-0.1,1.6l-0.8,0c-0.7,0-1.2-0.2-1.6-0.6
		c-0.4-0.4-0.6-0.9-0.5-1.6c0-1.4-0.5-2.4-1.5-3c-0.6-0.3-1.2-0.5-1.8-0.5l-4.3-0.1c-2.2-0.1-3.9-0.9-5-2.5
		c-0.8-1.2-1.2-2.6-1.2-4.1l0.1-2.8c0-1.5,0.5-2.9,1.4-4c1.2-1.5,2.9-2.3,5.2-2.2c2.2,0.1,3.9,0.9,5,2.5c0.8,1.2,1.2,2.5,1.2,4.1
		c0,0.4,0.2,0.6,0.6,0.6c0.4,0,0.6-0.2,0.6-0.6c0.1-3.1-1.1-5.4-3.6-6.7c-1.3-0.7-2.6-1.1-3.9-1.1c-1.3,0-2.7,0.2-4,0.9
		c-2.5,1.2-3.8,3.3-3.9,6.5l-0.1,2.8c-0.1,3.2,1.1,5.4,3.6,6.7c1.3,0.7,2.6,1.1,3.9,1.1l4.3,0.1c0.7,0,1.2,0.2,1.6,0.7
		c0.4,0.4,0.6,0.9,0.6,1.6c0,0.6-0.2,1.1-0.7,1.5s-1,0.6-1.6,0.6l-14.9-0.4l0.1-1.6l14.8,0.4c0.4,0,0.6-0.2,0.6-0.6
		c0-0.4-0.2-0.6-0.6-0.6l-4.3-0.1c-1.5,0-3-0.5-4.6-1.3c-3-1.6-4.4-4.4-4.4-8.2l0.1-2.8C937.8,94.2,939.4,91.6,942.5,90.2z"/>
	<path d="M964.4,111.9l0,1.5l-0.8,0c-0.6,0-1.2-0.2-1.6-0.7c-0.4-0.5-0.6-1-0.6-1.6l0.4-16.8c0-0.4-0.2-0.6-0.6-0.6
		c-0.4,0-0.6,0.2-0.6,0.6l-0.4,16.8c0,0.6-0.2,1.2-0.7,1.6c-0.4,0.4-1,0.6-1.6,0.6l-0.8,0l0.1-1.6l0.8,0c0.4,0,0.6-0.2,0.6-0.6
		l0.4-16.8c0-0.5,0.2-1,0.5-1.4c-0.3-0.4-0.5-0.9-0.4-1.4c0-0.6,0.3-1.1,0.7-1.5c0.4-0.4,1-0.6,1.6-0.6c0.6,0,1.1,0.3,1.5,0.7
		c0.4,0.4,0.6,1,0.6,1.6c0,0.5-0.2,1-0.5,1.4c0.3,0.4,0.5,0.9,0.4,1.4l-0.4,16.8c0,0.4,0.2,0.6,0.6,0.6L964.4,111.9z M960.7,91.5
		c0,0.4,0.2,0.6,0.6,0.6s0.6-0.2,0.6-0.6c0-0.4-0.2-0.6-0.6-0.6C960.9,90.9,960.7,91.1,960.7,91.5z"/>
	<path d="M978,89.7l6.1,13.1l-8.3-0.2c-0.4,0-0.6,0.2-0.6,0.6c0,0.4,0.2,0.6,0.6,0.6l8.9,0.2l4,8.6l0.8,0l-0.1,1.6l-1.7-0.1
		l-4.1-8.6l-7.9-0.2c-0.6,0-1.2-0.2-1.6-0.7c-0.4-0.4-0.6-1-0.6-1.6c0-0.7,0.2-1.2,0.7-1.6c0.4-0.4,0.9-0.6,1.6-0.5l5.8,0.2
		l-4.2-8.8l-11.3,21.3l-1.7-0.1l0.1-1.6l0.7,0l11.9-22.3L978,89.7z"/>
	<path d="M992,90.8c0.4-0.4,1-0.6,1.6-0.6s1.2,0.2,1.6,0.7c0.4,0.5,0.6,1,0.6,1.6l-0.3,12.6c0,0.6,0.1,1.1,0.5,1.5
		c0.3,0.4,0.8,0.6,1.5,0.6l5.6,0.2c0.6,0,1.2,0.2,1.6,0.7c0.4,0.4,0.6,1,0.6,1.6c0,0.6-0.2,1.2-0.7,1.6c-0.4,0.4-1,0.6-1.6,0.6
		l-7-0.1c-0.4,0-0.6,0.2-0.6,0.6c0,0.4,0.2,0.6,0.6,0.6l10.6,0.2l-0.1,1.6l-10.6-0.2c-0.6,0-1.2-0.2-1.6-0.7c-0.4-0.4-0.6-1-0.6-1.6
		c0-0.6,0.2-1.2,0.7-1.6c0.5-0.4,1-0.6,1.6-0.6l7,0.1c0.4,0,0.6-0.2,0.6-0.6c0-0.4-0.2-0.6-0.6-0.6l-5.6-0.2c-1,0-1.9-0.4-2.5-1.1
		c-0.7-0.7-1-1.6-0.9-2.6l0.3-12.6c0-0.4-0.2-0.6-0.6-0.6c-0.4,0-0.6,0.2-0.6,0.6l-0.4,19.6c0,0.6-0.2,1.2-0.7,1.6
		c-0.4,0.4-1,0.6-1.6,0.6l-0.8,0l0.1-1.6l0.8,0c0.4,0,0.6-0.2,0.6-0.6l0.5-19.6C991.4,91.7,991.6,91.2,992,90.8z"/>
	<path d="M1041.9,113.8l0.8,0.1l-0.1,1.6l-0.8,0c-0.6,0-1.2-0.2-1.6-0.7c-0.4-0.4-0.6-1-0.6-1.6l0.5-18.6l-7.8,10l-7.4-10.3
		l-0.5,18.6c0,0.6-0.2,1.2-0.7,1.6c-0.4,0.4-1,0.6-1.6,0.6l-0.8,0l0.1-1.6l0.8,0c0.4,0,0.6-0.2,0.6-0.6l0.5-21.8l1.1,0l7.8,10.9
		l8.3-10.5l1.1,0l-0.5,21.8C1041.3,113.5,1041.5,113.7,1041.9,113.8z"/>
	<path d="M1059.4,91.8c0.6,0,1.2,0.2,1.6,0.7c0.4,0.4,0.6,1,0.6,1.6c0,0.6-0.2,1.2-0.7,1.6c-0.4,0.4-1,0.6-1.6,0.6L1051,96
		c-0.6,0-1.1,0.2-1.5,0.5c-0.4,0.4-0.6,0.8-0.6,1.4s0.1,1.1,0.5,1.5c0.4,0.4,0.8,0.6,1.4,0.6l5.6,0.2c0.6,0,1.2,0.2,1.6,0.7
		c0.4,0.4,0.6,1,0.6,1.6c0,0.7-0.2,1.2-0.7,1.6c-0.4,0.4-0.9,0.6-1.6,0.5l-5.6-0.2c-0.6,0-1.1,0.1-1.5,0.5s-0.6,0.8-0.6,1.4
		c0,1.3,0.6,2,1.9,2.1l8.4,0.2c0.6,0,1.2,0.2,1.6,0.7c0.4,0.4,0.6,1,0.6,1.6c0,0.6-0.3,1.1-0.7,1.5c-0.4,0.4-1,0.6-1.6,0.6l-9.8-0.2
		c-0.4,0-0.6,0.2-0.6,0.6c0,0.4,0.2,0.6,0.6,0.6l13.4,0.3l-0.1,1.6l-13.4-0.3c-0.6,0-1.2-0.2-1.6-0.7c-0.4-0.4-0.6-1-0.6-1.6
		c0-0.6,0.2-1.2,0.7-1.6c0.4-0.4,1-0.6,1.6-0.6l9.8,0.2c0.4,0,0.6-0.2,0.6-0.6s-0.2-0.6-0.6-0.6l-8.4-0.2c-1,0-1.9-0.4-2.5-1.1
		c-0.6-0.7-1-1.6-0.9-2.6c0-1,0.4-1.9,1.1-2.6c0.7-0.7,1.6-1,2.6-0.9l5.6,0.2c0.4,0,0.6-0.2,0.6-0.6c0-0.4-0.2-0.6-0.6-0.6l-5.6-0.2
		c-1,0-1.9-0.4-2.5-1.1c-0.7-0.7-1-1.6-0.9-2.6c0-1,0.4-1.9,1.1-2.5c0.7-0.7,1.6-1,2.6-0.9l8.4,0.2c0.4,0,0.6-0.2,0.6-0.6
		c0-0.4-0.2-0.6-0.6-0.6l-13.2-0.3l-0.4,20.2c0,0.6-0.2,1.2-0.7,1.6c-0.4,0.4-1,0.6-1.6,0.6l-0.8,0l0.1-1.6l0.8,0
		c0.4,0,0.6-0.2,0.6-0.6l0.5-21.8L1059.4,91.8z"/>
	<path d="M1072.2,92.1c1.8,0.1,3.5,0.6,5.3,1.6c3.4,1.9,5.1,5,5.1,9.4s-1.9,7.4-5.4,9.1c-1.8,0.9-3.6,1.3-5.4,1.2l-2.8-0.1
		c-0.5,0-0.7,0.2-0.7,0.5c0,0.4,0.2,0.6,0.7,0.7l14.8,0.4l-0.1,1.6l-14.8-0.4c-0.6,0-1.2-0.2-1.6-0.7c-0.4-0.4-0.6-0.9-0.6-1.6
		s0.2-1.2,0.7-1.6c0.4-0.4,1-0.6,1.7-0.5l2.8,0.1c1.6,0.1,3.2-0.3,4.7-1c3-1.4,4.5-4,4.5-7.7s-1.3-6.4-4.2-8c-1.5-0.8-3-1.3-4.6-1.3
		l-6.4-0.3l-0.4,20.2c0,0.6-0.2,1.2-0.7,1.6c-0.4,0.4-1,0.6-1.6,0.6l-0.8,0l0.1-1.6l0.8,0c0.4,0,0.6-0.2,0.6-0.6l0.5-21.8
		L1072.2,92.1z"/>
	<path d="M1090.8,115l0,1.5l-0.8,0c-0.6,0-1.2-0.2-1.6-0.7c-0.4-0.4-0.6-1-0.6-1.6l0.4-16.8c0-0.4-0.2-0.6-0.6-0.6
		c-0.4,0-0.6,0.2-0.6,0.6l-0.4,16.8c0,0.6-0.2,1.2-0.7,1.6c-0.4,0.4-1,0.6-1.6,0.6l-0.8,0l0.1-1.6l0.8,0c0.4,0,0.6-0.2,0.6-0.6
		l0.4-16.8c0-0.5,0.2-1,0.5-1.4c-0.3-0.4-0.5-0.9-0.4-1.4c0-0.6,0.3-1.1,0.7-1.5c0.4-0.4,1-0.6,1.6-0.6s1.1,0.3,1.5,0.7
		c0.4,0.4,0.6,1,0.6,1.6c0,0.5-0.2,1-0.5,1.4c0.3,0.4,0.5,0.9,0.4,1.4l-0.4,16.8c0,0.4,0.2,0.6,0.6,0.6L1090.8,115z M1087,94.7
		c0,0.4,0.2,0.6,0.6,0.6s0.6-0.2,0.6-0.6c0-0.4-0.2-0.6-0.6-0.6C1087.3,94.1,1087.1,94.3,1087,94.7z"/>
	<path d="M1104.4,92.7l6.1,13.1l-8.3-0.2c-0.4,0-0.6,0.2-0.6,0.6c0,0.4,0.2,0.6,0.6,0.6l8.9,0.2l4,8.6l0.8,0l-0.1,1.6l-1.7-0.1
		l-4.1-8.6l-7.9-0.2c-0.6,0-1.2-0.2-1.6-0.7c-0.4-0.4-0.6-1-0.6-1.6c0-0.7,0.2-1.2,0.7-1.6c0.4-0.4,0.9-0.6,1.6-0.5l5.8,0.2
		l-4.2-8.8l-11.3,21.3l-1.7-0.1l0.1-1.6l0.7,0l11.9-22.3L1104.4,92.7z"/>
</g>
<g>
	<path d="M326.7,86.3c1.4-1,3.1-1.4,4.8-1.4l6.7,0.2c1.8,0.1,3.4,0.6,4.8,1.7c1.8,1.4,2.7,3.5,2.6,6.2l-0.1,1.7
		c0,0.7-0.3,1.4-0.8,1.8c-0.5,0.5-1.1,0.7-1.9,0.7c-0.8,0-1.4-0.3-1.9-0.8c-0.5-0.5-0.7-1.1-0.7-1.9l0.1-1.7c0-0.7-0.2-1.3-0.6-1.8
		c-0.4-0.5-1-0.7-1.7-0.7l-6.7-0.2c-0.7,0-1.3,0.2-1.8,0.6s-0.7,1-0.7,1.7l-0.3,10c0,0.7,0.2,1.3,0.6,1.8c0.4,0.4,1,0.7,1.7,0.7
		l8.4,0.3c0.5,0,0.8-0.2,0.8-0.7c0-0.5-0.2-0.7-0.7-0.7l-5-0.2c-0.7,0-1.4-0.3-1.8-0.8c-0.5-0.5-0.7-1.1-0.7-1.9
		c0-0.8,0.3-1.4,0.8-1.9c0.5-0.5,1.1-0.7,1.9-0.7l5,0.2c1.8,0.1,3.2,0.6,4.3,1.8c1.1,1.1,1.6,2.6,1.5,4.4l-0.2,6.7
		c0,0.5,0.2,0.7,0.7,0.7l1,0l-0.1,1.9l-1,0c-0.8,0-1.4-0.3-1.9-0.8c-0.5-0.5-0.7-1.1-0.7-1.9l0.2-6.7c0-1.6-0.5-2.8-1.8-3.6
		c-0.7-0.4-1.4-0.6-2.2-0.6l-5-0.2c-0.5,0-0.8,0.2-0.8,0.7c0,0.5,0.2,0.7,0.7,0.7l5,0.2c0.8,0,1.4,0.3,1.9,0.8
		c0.5,0.5,0.7,1.1,0.7,1.9c0,0.8-0.3,1.4-0.8,1.9c-0.5,0.5-1.1,0.7-1.9,0.7l-8.4-0.3c-1.2,0-2.3-0.5-3.1-1.3
		c-0.8-0.8-1.2-1.9-1.1-3.1l0.3-10.1c0-1.2,0.5-2.3,1.3-3.1c0.8-0.8,1.9-1.2,3.1-1.1l6.7,0.2c1.3,0,2.3,0.5,3.1,1.3
		c0.8,0.8,1.1,1.9,1.1,3.1l-0.1,1.7c0,0.5,0.2,0.7,0.7,0.7c0.5,0,0.7-0.2,0.7-0.7l0.1-1.7c0.1-2.4-0.8-4.1-2.6-5.1
		c-1-0.5-1.9-0.8-3-0.8l-6.7-0.2c-1,0-2,0.2-3,0.7c-1.9,0.9-2.9,2.5-2.9,4.9l-0.3,10c-0.1,2.7,1.1,4.6,3.5,5.5
		c0.8,0.3,1.5,0.4,2.1,0.5l8.4,0.3c0.8,0,1.4,0.3,1.9,0.8c0.5,0.5,0.7,1.1,0.7,1.9c0,0.8-0.3,1.4-0.8,1.9c-0.5,0.5-1.1,0.7-1.9,0.7
		l-17.7-0.5l0.1-1.9l17.7,0.5c0.5,0,0.8-0.2,0.8-0.7c0-0.5-0.2-0.7-0.7-0.7l-8.4-0.3c-1.8-0.1-3.4-0.6-4.8-1.7
		c-1.8-1.4-2.7-3.5-2.6-6.2l0.3-10C323.8,89.6,324.8,87.6,326.7,86.3z"/>
	<path d="M368.7,112.8l-0.1,1.9l-3-0.1l-13.2-14l0.1-1.7l7.3,0.2c1,0,2-0.2,3-0.7c1.9-0.9,2.8-2.5,2.9-4.9c0.1-2.4-0.8-4.1-2.6-5.1
		c-1-0.5-1.9-0.8-3-0.8l-9.1-0.3l-0.7,24.2c0,0.8-0.3,1.4-0.8,1.9c-0.5,0.5-1.1,0.7-1.9,0.7l-1,0l0.1-1.9l0.9,0
		c0.5,0,0.8-0.2,0.8-0.7l0.8-26.1l11,0.3c1.8,0.1,3.4,0.6,4.8,1.7c1.8,1.4,2.7,3.5,2.6,6.2c-0.1,2.7-1.1,4.7-3,6
		c-1.4,1-3.1,1.4-4.8,1.4l-4.4-0.1l11.2,11.9L368.7,112.8z"/>
	<path d="M385.1,86.3l7.2,15.7l-9.9-0.3c-0.5,0-0.8,0.2-0.8,0.7c0,0.5,0.2,0.7,0.7,0.8l10.7,0.3l4.7,10.2l0.9,0l-0.1,1.9l-2.1-0.1
		l-4.7-10.2l-9.5-0.3c-0.8,0-1.4-0.3-1.9-0.8c-0.5-0.5-0.7-1.2-0.7-1.9c0-0.8,0.3-1.4,0.8-1.9c0.5-0.5,1.1-0.7,1.9-0.7l6.9,0.2
		l-4.9-10.6l-13.6,25.3l-2.1-0.1l0.1-1.9l0.9,0l14.4-26.5L385.1,86.3z"/>
	<path d="M412.1,87.3c1.8,0.1,3.4,0.6,4.8,1.7c1.8,1.4,2.7,3.5,2.6,6.2c-0.1,2.7-1.1,4.7-3,6c-1.4,1-3.1,1.4-4.8,1.4l-5-0.2
		c-0.5,0-0.8,0.2-0.8,0.7l-0.3,10.8l15.1,0.5l-0.1,1.9l-17-0.5l0.4-12.7c0-0.8,0.3-1.4,0.8-1.9c0.5-0.5,1.2-0.7,1.9-0.7l5,0.2
		c1,0,2-0.2,3-0.7c1.9-0.9,2.8-2.5,2.9-4.9c0.1-2.4-0.8-4.1-2.6-5.1c-1-0.5-1.9-0.8-3-0.8L403,89l-0.7,24.2c0,0.8-0.3,1.4-0.8,1.9
		c-0.5,0.5-1.1,0.7-1.9,0.7l-1,0l0.1-1.9l0.9,0c0.5,0,0.8-0.2,0.8-0.7l0.8-26.1L412.1,87.3z"/>
	<path d="M440.5,88.9c0.5-0.5,1.1-0.7,1.9-0.7c0.8,0,1.4,0.3,1.9,0.8c0.5,0.5,0.7,1.1,0.7,1.9l-0.7,23.4c0,0.5,0.2,0.7,0.7,0.7
		l0.9,0l-0.1,1.9l-0.9,0c-0.8,0-1.4-0.3-1.9-0.8c-0.5-0.5-0.7-1.1-0.7-1.9l0.7-23.4c0-0.5-0.2-0.7-0.7-0.7c-0.5,0-0.7,0.2-0.7,0.7
		l-0.3,8.4c0,1.3-0.5,2.3-1.3,3c-0.8,0.8-1.9,1.1-3.1,1.1l-6.7-0.2c-1.3,0-2.3-0.5-3.1-1.3c-0.8-0.8-1.1-1.9-1.1-3.1l0.3-8.4
		c0-0.5-0.2-0.7-0.7-0.7c-0.5,0-0.7,0.2-0.7,0.7l-0.7,23.4c0,0.8-0.3,1.4-0.8,1.9c-0.5,0.5-1.1,0.7-1.9,0.7l-1,0l0.1-1.9l0.9,0
		c0.5,0,0.8-0.2,0.8-0.7l0.7-23.4c0-0.8,0.3-1.4,0.8-1.9c0.5-0.5,1.1-0.7,1.9-0.7c0.8,0,1.4,0.3,1.9,0.8c0.5,0.5,0.7,1.1,0.7,1.9
		l-0.3,8.4c0,0.7,0.2,1.3,0.6,1.8c0.4,0.5,1,0.7,1.7,0.7l6.7,0.2c0.7,0,1.3-0.2,1.8-0.6c0.5-0.4,0.7-1,0.7-1.7l0.3-8.4
		C439.8,90,440,89.4,440.5,88.9z"/>
	<path d="M454.5,115.4l0,1.8l-1,0c-0.8,0-1.4-0.3-1.9-0.8c-0.5-0.5-0.7-1.2-0.7-1.9l0.6-20.1c0-0.5-0.2-0.8-0.7-0.8
		c-0.5,0-0.7,0.2-0.7,0.7l-0.6,20.1c0,0.8-0.3,1.4-0.8,1.9c-0.5,0.5-1.1,0.7-1.9,0.7l-1,0l0.1-1.9l0.9,0c0.5,0,0.8-0.2,0.8-0.7
		l0.6-20.1c0-0.6,0.2-1.2,0.6-1.7c-0.4-0.5-0.5-1-0.5-1.7c0-0.7,0.3-1.3,0.8-1.8c0.5-0.5,1.2-0.7,1.9-0.7c0.7,0,1.3,0.3,1.8,0.8
		c0.5,0.5,0.7,1.2,0.7,1.9c0,0.6-0.2,1.2-0.6,1.6c0.4,0.5,0.5,1.1,0.5,1.7l-0.6,20.1c0,0.5,0.2,0.7,0.7,0.7L454.5,115.4z
		 M450.2,91.1c0,0.5,0.2,0.7,0.7,0.7c0.5,0,0.7-0.2,0.7-0.7c0-0.5-0.2-0.7-0.7-0.7C450.5,90.4,450.2,90.6,450.2,91.1z"/>
	<path d="M462.4,90.3c1.9-0.9,3.8-1.3,5.6-1.3c1.8,0.1,3.7,0.6,5.5,1.6c3.6,2,5.3,5.2,5.2,9.7c0,0.7-0.3,1.4-0.8,1.8
		c-0.5,0.5-1.1,0.7-1.9,0.7c-0.8,0-1.4-0.3-1.8-0.8c-0.5-0.5-0.7-1.1-0.7-1.9c0-1-0.2-2-0.7-3c-0.9-1.9-2.5-2.9-4.9-2.9
		c-2.4-0.1-4.1,0.8-5.1,2.6c-0.5,1-0.8,1.9-0.8,3l-0.1,3.3c0,1,0.2,2,0.7,3c0.9,1.9,2.5,2.8,4.9,2.9l5.1,0.2c1.4,0,2.7,0.5,3.7,1.3
		c1.4,1.1,2.1,2.7,2.1,4.8c0,0.5,0.2,0.7,0.7,0.7l1,0l-0.1,1.9l-0.9,0c-0.8,0-1.4-0.3-1.9-0.8c-0.5-0.5-0.7-1.1-0.7-1.9
		c0-1.6-0.5-2.8-1.8-3.6c-0.7-0.4-1.4-0.6-2.2-0.6l-5.1-0.2c-2.7-0.1-4.7-1.1-6-3c-1-1.4-1.5-3.1-1.4-4.9l0.1-3.3
		c0.1-1.8,0.6-3.4,1.7-4.8c1.4-1.8,3.5-2.7,6.2-2.7c2.7,0.1,4.7,1.1,6,3c1,1.4,1.4,3,1.4,4.8c0,0.5,0.2,0.8,0.7,0.8
		c0.5,0,0.7-0.2,0.7-0.7c0.1-3.8-1.3-6.4-4.2-8.1c-1.5-0.8-3.1-1.3-4.7-1.3c-1.6,0-3.2,0.3-4.7,1c-3,1.4-4.5,4-4.6,7.8l-0.1,3.3
		c-0.1,3.8,1.3,6.5,4.2,8.1c1.5,0.8,3.1,1.3,4.7,1.3l5.1,0.2c0.8,0,1.4,0.3,1.9,0.8c0.5,0.5,0.7,1.1,0.7,1.9c0,0.7-0.3,1.4-0.8,1.8
		c-0.5,0.5-1.1,0.7-1.9,0.7l-17.8-0.5l0.1-1.9l17.7,0.5c0.5,0,0.8-0.2,0.8-0.7c0-0.5-0.2-0.7-0.7-0.7l-5.1-0.2
		c-1.8-0.1-3.6-0.6-5.5-1.6c-3.6-1.9-5.3-5.2-5.2-9.7l0.1-3.3C456.8,95.2,458.7,92,462.4,90.3z"/>
	<path d="M509.6,90.3c2.1,0.1,4.2,0.7,6.3,1.8c4.1,2.3,6.1,6,5.9,11.2c-0.2,5.2-2.4,8.8-6.6,10.8c-2.2,1-4.3,1.5-6.4,1.5l-3.4-0.1
		c-0.5,0-0.8,0.2-0.8,0.7c0,0.5,0.3,0.8,0.8,0.8l17.7,0.5l-0.1,1.9l-17.6-0.5c-0.8,0-1.4-0.3-1.9-0.8c-0.5-0.5-0.7-1.1-0.7-1.9
		c0-0.8,0.3-1.5,0.8-1.9c0.5-0.5,1.2-0.7,2-0.7l3.3,0.1c1.9,0.1,3.8-0.4,5.6-1.2c3.5-1.7,5.4-4.8,5.5-9.2s-1.5-7.6-4.9-9.5
		c-1.8-1-3.6-1.5-5.5-1.6l-7.4-0.2l-0.7,24.2c0,0.8-0.3,1.4-0.8,1.9c-0.5,0.5-1.1,0.7-1.9,0.7l-1,0l0.1-1.9l0.9,0
		c0.5,0,0.8-0.2,0.8-0.7l0.8-26.1L509.6,90.3z"/>
	<path d="M543.3,91.3c0.8,0,1.4,0.3,1.9,0.8c0.5,0.5,0.7,1.1,0.7,1.9c0,0.8-0.3,1.4-0.8,1.9c-0.5,0.5-1.2,0.7-1.9,0.7l-10-0.3
		c-0.7,0-1.3,0.2-1.8,0.6c-0.5,0.4-0.7,1-0.7,1.7c0,0.7,0.2,1.3,0.6,1.8c0.4,0.5,1,0.7,1.7,0.7l6.7,0.2c0.8,0,1.4,0.3,1.9,0.8
		c0.5,0.5,0.7,1.1,0.7,1.9c0,0.8-0.3,1.4-0.8,1.9c-0.5,0.5-1.1,0.7-1.9,0.7l-6.7-0.2c-0.7,0-1.3,0.2-1.8,0.6c-0.5,0.4-0.7,1-0.7,1.7
		c0,1.6,0.7,2.4,2.3,2.5l10,0.3c0.8,0,1.4,0.3,1.9,0.8c0.5,0.5,0.7,1.2,0.7,1.9c0,0.7-0.3,1.4-0.8,1.8c-0.5,0.5-1.2,0.7-1.9,0.7
		l-11.7-0.4c-0.5,0-0.8,0.2-0.8,0.7c0,0.5,0.2,0.7,0.7,0.7l16,0.5l-0.1,1.9l-16-0.5c-0.8,0-1.4-0.3-1.9-0.8
		c-0.5-0.5-0.7-1.1-0.7-1.9c0-0.8,0.3-1.4,0.8-1.9c0.5-0.5,1.2-0.7,1.9-0.7l11.7,0.4c0.5,0,0.8-0.2,0.8-0.7c0-0.5-0.2-0.7-0.7-0.8
		l-10-0.3c-1.2,0-2.3-0.5-3-1.3c-0.8-0.8-1.2-1.9-1.1-3.1s0.5-2.3,1.3-3.1c0.8-0.8,1.9-1.2,3.1-1.1l6.7,0.2c0.5,0,0.7-0.2,0.7-0.7
		c0-0.5-0.2-0.7-0.7-0.7l-6.7-0.2c-1.2,0-2.3-0.5-3-1.3c-0.8-0.8-1.2-1.9-1.1-3.1c0-1.2,0.5-2.3,1.3-3c0.8-0.8,1.9-1.2,3.1-1.1
		l10,0.3c0.5,0,0.8-0.2,0.8-0.7c0-0.5-0.2-0.7-0.7-0.7l-15.8-0.5l-0.7,24.2c0,0.8-0.3,1.4-0.8,1.9c-0.5,0.5-1.1,0.7-1.9,0.7l-1,0
		l0.1-1.9l0.9,0c0.5,0,0.8-0.2,0.8-0.7l0.8-26.1L543.3,91.3z"/>
	<path d="M552.3,93.3c1.6-1.1,3.4-1.6,5.4-1.6c2,0.1,3.7,0.7,5.3,1.9c2,1.6,3,3.9,2.9,6.9l0,0.8c0,0.8-0.3,1.4-0.8,1.9
		c-0.5,0.5-1.1,0.7-1.9,0.7c-0.8,0-1.4-0.3-1.9-0.8c-0.5-0.5-0.7-1.1-0.7-1.9l0-0.8c0-1.3-0.4-2.3-1.4-2.8c-0.5-0.3-1.1-0.5-1.7-0.5
		c-0.6,0-1.2,0.1-1.8,0.4c-1,0.5-1.6,1.4-1.6,2.7c0,1.3,0.4,2.2,1.4,2.8c0.6,0.3,1.1,0.5,1.7,0.5c2,0.1,3.7,0.7,5.3,1.9
		c2,1.6,3,3.9,2.9,6.8c-0.1,2.9-1.1,5-3.1,6.5l4.6,0.1l-0.1,1.9l-10.1-0.3l0.1-1.9c1.1,0,2.3-0.2,3.4-0.8c2.2-1,3.3-2.9,3.4-5.6
		c0.1-2.7-0.9-4.6-3-5.8c-0.8-0.5-2-0.8-3.5-1c-3.4-0.4-5-2.2-4.9-5.3c0-1.5,0.6-2.7,1.6-3.7c1-0.9,2.2-1.4,3.8-1.3
		c1.5,0,2.7,0.6,3.6,1.6c0.9,1,1.4,2.2,1.3,3.8l0,0.8c0,0.5,0.2,0.7,0.7,0.7c0.5,0,0.7-0.2,0.7-0.7l0-0.8c0.1-2.7-0.9-4.7-3-5.8
		c-1.1-0.6-2.2-0.9-3.3-1c-1.2,0-2.3,0.2-3.4,0.8c-2.2,1-3.3,2.9-3.4,5.6c-0.1,2.7,0.9,4.6,3,5.8c1.1,0.6,2.2,0.9,3.4,1
		c1.5,0,2.7,0.6,3.6,1.6c0.9,1,1.4,2.2,1.3,3.7c0,1.5-0.6,2.7-1.5,3.7c-1,0.9-2.2,1.4-3.7,1.3c-1.5,0-2.7-0.6-3.7-1.6
		s-1.4-2.2-1.3-3.8l0-1.6c0-0.5-0.2-0.8-0.7-0.8c-0.5,0-0.7,0.2-0.7,0.7l-0.2,7.5c0,0.7-0.3,1.4-0.8,1.8c-0.5,0.5-1.1,0.7-1.9,0.7
		l-1,0l0.1-1.9l0.9,0c0.5,0,0.8-0.2,0.8-0.7l0.2-7.5c0-0.8,0.3-1.4,0.8-1.9c0.5-0.5,1.1-0.7,1.9-0.7s1.4,0.3,1.9,0.8
		c0.5,0.5,0.7,1.1,0.7,1.9l0,1.6c0,1.3,0.4,2.3,1.4,2.8c0.5,0.3,1.1,0.5,1.7,0.5c0.6,0,1.2-0.1,1.8-0.4c1-0.5,1.5-1.4,1.6-2.7
		c0-1.3-0.4-2.2-1.4-2.8c-0.6-0.3-1.1-0.5-1.7-0.5c-2-0.1-3.7-0.7-5.3-1.9c-2.1-1.6-3-3.9-2.9-6.8C549.1,97,550.2,94.8,552.3,93.3z"
		/>
	<path d="M575.7,119.1l0,1.8l-1,0c-0.8,0-1.4-0.3-1.9-0.8c-0.5-0.5-0.7-1.2-0.7-1.9l0.6-20.1c0-0.5-0.2-0.8-0.7-0.8
		s-0.7,0.2-0.7,0.7l-0.6,20.1c0,0.8-0.3,1.4-0.8,1.9c-0.5,0.5-1.1,0.7-1.9,0.7l-1,0l0.1-1.9l0.9,0c0.5,0,0.8-0.2,0.8-0.7l0.6-20.1
		c0-0.6,0.2-1.2,0.6-1.7c-0.4-0.5-0.5-1-0.5-1.7c0-0.7,0.3-1.3,0.8-1.8c0.5-0.5,1.2-0.7,1.9-0.7c0.7,0,1.3,0.3,1.8,0.8
		c0.5,0.5,0.7,1.2,0.7,1.9c0,0.6-0.2,1.2-0.6,1.6c0.4,0.5,0.5,1.1,0.5,1.7l-0.6,20.1c0,0.5,0.2,0.7,0.7,0.7L575.7,119.1z
		 M571.4,94.8c0,0.5,0.2,0.7,0.7,0.7c0.5,0,0.7-0.2,0.7-0.7c0-0.5-0.2-0.7-0.7-0.7S571.4,94.3,571.4,94.8z"/>
	<path d="M581,94c1.4-1,3.1-1.4,4.8-1.4l6.7,0.2c1.8,0.1,3.4,0.6,4.8,1.7c1.8,1.4,2.7,3.5,2.6,6.2l-0.1,1.7c0,0.7-0.3,1.4-0.8,1.8
		c-0.5,0.5-1.1,0.7-1.9,0.7c-0.8,0-1.4-0.3-1.9-0.8c-0.5-0.5-0.7-1.1-0.7-1.9l0.1-1.7c0-0.7-0.2-1.3-0.6-1.8c-0.4-0.5-1-0.7-1.7-0.7
		l-6.7-0.2c-0.7,0-1.3,0.2-1.8,0.6c-0.4,0.4-0.7,1-0.7,1.7l-0.3,10c0,0.7,0.2,1.3,0.6,1.8c0.4,0.4,1,0.7,1.7,0.7l8.3,0.3
		c0.5,0,0.8-0.2,0.8-0.7c0-0.5-0.2-0.7-0.7-0.7l-5-0.2c-0.7,0-1.4-0.3-1.8-0.8c-0.5-0.5-0.7-1.1-0.7-1.9c0-0.8,0.3-1.4,0.8-1.9
		c0.5-0.5,1.1-0.7,1.9-0.7l5,0.2c1.8,0.1,3.2,0.6,4.3,1.8c1.1,1.1,1.6,2.6,1.5,4.4l-0.2,6.7c0,0.5,0.2,0.7,0.7,0.7l1,0l-0.1,1.9
		l-1,0c-0.8,0-1.4-0.3-1.9-0.8c-0.5-0.5-0.7-1.1-0.7-1.9l0.2-6.7c0-1.6-0.5-2.8-1.8-3.6c-0.7-0.4-1.4-0.6-2.2-0.6l-5-0.2
		c-0.5,0-0.8,0.2-0.8,0.7c0,0.5,0.2,0.7,0.7,0.7l5,0.2c0.8,0,1.4,0.3,1.9,0.8c0.5,0.5,0.7,1.1,0.7,1.9c0,0.8-0.3,1.4-0.8,1.9
		c-0.5,0.5-1.1,0.7-1.9,0.7l-8.4-0.3c-1.2,0-2.3-0.5-3.1-1.3c-0.8-0.8-1.2-1.9-1.1-3.1l0.3-10.1c0-1.2,0.5-2.3,1.3-3.1
		c0.8-0.8,1.9-1.2,3.1-1.1l6.7,0.2c1.3,0,2.3,0.5,3.1,1.3c0.8,0.8,1.1,1.9,1.1,3.1l-0.1,1.7c0,0.5,0.2,0.7,0.7,0.7
		c0.5,0,0.7-0.2,0.7-0.7l0.1-1.7c0.1-2.4-0.8-4.1-2.6-5.1c-1-0.5-1.9-0.8-3-0.8l-6.7-0.2c-1,0-2,0.2-3,0.7c-1.9,0.9-2.9,2.5-2.9,4.9
		l-0.3,10c-0.1,2.7,1.1,4.6,3.5,5.5c0.8,0.3,1.5,0.4,2.1,0.5l8.4,0.3c0.8,0,1.4,0.3,1.9,0.8c0.5,0.5,0.7,1.1,0.7,1.9
		c0,0.8-0.3,1.4-0.8,1.9c-0.5,0.5-1.1,0.7-1.9,0.7l-17.7-0.5l0.1-1.9l17.7,0.5c0.5,0,0.8-0.2,0.8-0.7c0-0.5-0.2-0.7-0.7-0.7
		l-8.3-0.3c-1.8-0.1-3.4-0.6-4.8-1.7c-1.8-1.4-2.7-3.5-2.6-6.2l0.3-10C578,97.3,579,95.3,581,94z"/>
	<path d="M617.6,94.3c0.5-0.5,1.1-0.7,1.9-0.7c0.8,0,1.4,0.3,1.9,0.8c0.5,0.5,0.7,1.1,0.7,1.9l-0.7,23.4c0,0.5,0.2,0.8,0.7,0.8
		l0.9,0l0,1.9l-1-0.1c-1.7-0.2-2.5-1.1-2.5-2.7l0.7-23.3c0-0.5-0.2-0.8-0.7-0.8c-0.5,0-0.7,0.2-0.7,0.7l-0.8,26l-1.5,0l-11.2-24.1
		l-0.6,21c0,0.8-0.3,1.4-0.8,1.9c-0.5,0.5-1.1,0.7-1.9,0.7l-1,0l0.1-1.9l0.9,0c0.5,0,0.8-0.2,0.8-0.7l0.8-26l1.5,0l11.2,24.1
		l0.6-21.1C616.8,95.4,617.1,94.8,617.6,94.3z"/>
</g>
</svg>
