<?xml version="1.0" encoding="UTF-8" standalone="no"?>
<svg
   xmlns:dc="http://purl.org/dc/elements/1.1/"
   xmlns:cc="http://creativecommons.org/ns#"
   xmlns:rdf="http://www.w3.org/1999/02/22-rdf-syntax-ns#"
   xmlns:svg="http://www.w3.org/2000/svg"
   xmlns="http://www.w3.org/2000/svg"
   xmlns:sodipodi="http://sodipodi.sourceforge.net/DTD/sodipodi-0.dtd"
   xmlns:inkscape="http://www.inkscape.org/namespaces/inkscape"
   width="253.62958mm"
   height="71.199371mm"
   viewBox="0 0 253.62958 71.199371"
   version="1.1"
   id="svg8"
   inkscape:version="1.0.1 (3bc2e813f5, 2020-09-07)"
   sodipodi:docname="disegno.svg">
  <defs
     id="defs2" />
  <sodipodi:namedview
     id="base"
     pagecolor="#ffffff"
     bordercolor="#666666"
     borderopacity="1.0"
     inkscape:pageopacity="0.0"
     inkscape:pageshadow="2"
     inkscape:zoom="0.98994949"
     inkscape:cx="527.75619"
     inkscape:cy="35.536985"
     inkscape:document-units="mm"
     inkscape:current-layer="g1074"
     inkscape:document-rotation="0"
     showgrid="false"
     inkscape:window-width="1631"
     inkscape:window-height="1030"
     inkscape:window-x="32"
     inkscape:window-y="0"
     inkscape:window-maximized="0" />
  <metadata
     id="metadata5">
    <rdf:RDF>
      <cc:Work
         rdf:about="">
        <dc:format>image/svg+xml</dc:format>
        <dc:type
           rdf:resource="http://purl.org/dc/dcmitype/StillImage" />
        <dc:title></dc:title>
      </cc:Work>
    </rdf:RDF>
  </metadata>
  <g
     inkscape:label="Livello 1"
     inkscape:groupmode="layer"
     id="layer1"
     transform="translate(23.997399,-110.53492)">
    <g
       id="g1074"
       transform="matrix(0.26458333,0,0,0.26458333,-75.663272,105.97885)">
      <g
         id="g646"
         transform="translate(17.172593,-67.680221)">
	<g
   id="g644">
		<g
   id="g192">
			<polygon
   class="st0"
   points="818.3,131.5 819.4,141 1102.5,135.9 1136,123.9 878.9,110.8 "
   id="polygon12" />

			<polygon
   class="st1"
   points="836.5,353.9 892.3,353.5 884.3,122.2 826.8,140.2 "
   id="polygon14" />

			
				<linearGradient
   id="SVGID_1_"
   gradientUnits="userSpaceOnUse"
   x1="1007.15"
   y1="51.285301"
   x2="1007.15"
   y2="269.24689"
   gradientTransform="matrix(1,0,0,-1,0,402)">
				<stop
   offset="0"
   style="stop-color:#FFB898"
   id="stop16" />

				<stop
   offset="0.9946"
   style="stop-color:#FFE2C0"
   id="stop18" />

			</linearGradient>

			<polygon
   class="st2"
   points="1130,125.2 1113.3,354 892.3,353.5 884.3,122.2 "
   id="polygon21"
   style="fill:url(#SVGID_1_)" />

			<polygon
   class="st3"
   points="1130,182.9 881.9,186.3 884.8,265.3 1124.7,267.1 "
   id="polygon23" />

			<polygon
   class="st0"
   points="830.8,267.7 884.8,265.3 881.9,186.3 828.2,198.4 "
   id="polygon25" />

			<g
   id="g29">
				<rect
   x="959.29999"
   y="282.29999"
   class="st4"
   width="0.2"
   height="18.5"
   id="rect27" />

			</g>

			<g
   id="g33">
				
					<rect
   x="1029.8"
   y="289.89999"
   transform="matrix(0.054718,-0.9985,0.9985,0.054718,690.5856,1309.5187)"
   class="st4"
   width="14.2"
   height="0.30000001"
   id="rect31" />

			</g>

			<polygon
   class="st5"
   points="1112,354 893.9,353.3 892.3,281.8 1115.7,283.6 "
   id="polygon35" />

			<polygon
   class="st6"
   points="892.3,281.8 1115.7,283.6 1064.9,287.1 1061.2,353.5 893.9,353.3 "
   id="polygon37" />

			<polygon
   class="st5"
   points="836.5,353.9 890.9,353.5 889.1,281.8 834.8,281.8 "
   id="polygon39" />

			<path
   class="st4"
   d="m 1034.2,312.5 -2.7,40.7 -70.1,-0.5 -1.3,-39.6 z m 0.8,-0.7 -75.6,0.6 1.3,41.1 71.5,0.5 z"
   id="path41" />

			<g
   id="g45">
				<polygon
   class="st4"
   points="1007.6,312 1007.8,312 1007.3,353.3 1007.1,353.3 "
   id="polygon43" />

			</g>

			<g
   id="g49">
				<rect
   x="1007.7"
   y="321"
   class="st4"
   width="26.700001"
   height="0.2"
   id="rect47" />

			</g>

			<g
   id="g53">
				<rect
   x="985.20001"
   y="312.20001"
   class="st4"
   width="0.2"
   height="40.599998"
   id="rect51" />

			</g>

			
				<linearGradient
   id="SVGID_2_"
   gradientUnits="userSpaceOnUse"
   x1="997.25"
   y1="48.873199"
   x2="997.25"
   y2="104.9771"
   gradientTransform="matrix(1,0,0,-1,0,402)">
				<stop
   offset="0"
   style="stop-color:#FFB898"
   id="stop55" />

				<stop
   offset="0.9946"
   style="stop-color:#FFE2C0"
   id="stop57" />

			</linearGradient>

			<polygon
   class="st7"
   points="1032.9,314.7 1032.2,354 1035.3,353.4 1037.3,295.9 957.2,294.3 957.8,353.6 960.7,353.5 959.8,314.9 "
   id="polygon60"
   style="fill:url(#SVGID_2_)" />

			<polygon
   class="st8"
   points="1036.5,297.1 1035,311.8 959.4,312.4 959.4,295.9 "
   id="polygon62" />

			<polygon
   class="st9"
   points="1003.1,306.4 1003.1,304.2 964.3,303.9 964.3,306.4 "
   id="polygon64" />

			<g
   id="g68">
				<polygon
   class="st4"
   points="923,282 924.5,353.3 924.2,353.3 922.7,282 "
   id="polygon66" />

			</g>

			<g
   id="g72">
				<polygon
   class="st4"
   points="1068.8,283.2 1069,283.2 1064.9,353.5 1064.6,353.5 "
   id="polygon70" />

			</g>

			<g
   id="g76">
				<polygon
   class="st4"
   points="1096.5,283.2 1096.7,283.2 1089.3,354 1089.1,354 "
   id="polygon74" />

			</g>

			<polygon
   class="st10"
   points="942.2,334.4 942.2,282.3 910,282.3 914.5,335.2 "
   id="polygon78" />

			<polygon
   class="st10"
   points="1047.9,283 1047.9,315.8 1055,316.4 1055.2,343.4 1080.5,343.4 1083.6,283.2 "
   id="polygon80" />

			<polygon
   class="st10"
   points="1112.4,323.5 1115.2,290 1107,290 1105.1,323.5 "
   id="polygon82" />

			<polygon
   class="st0"
   points="1118.2,269.1 890.4,267.9 830,267.7 884.8,265.3 1124.7,267.1 "
   id="polygon84" />

			<polygon
   class="st11"
   points="915,303.9 915,340.7 897.6,340.7 895.8,303.9 "
   id="polygon86" />

			<rect
   x="969.09998"
   y="330"
   class="st11"
   width="8.5"
   height="2.8"
   id="rect88" />

			<polygon
   class="st12"
   points="984.4,340.2 984.1,340.2 984,331.5 984.5,331.5 "
   id="polygon90" />

			<g
   id="g94">
				<rect
   x="914.79999"
   y="185.89999"
   class="st0"
   width="0.5"
   height="79.400002"
   id="rect92" />

			</g>

			<g
   id="g98">
				
					<rect
   x="959.5"
   y="185.89999"
   transform="matrix(1,-0.00268807,0.00268807,1,-0.6042,2.5807)"
   class="st0"
   width="0.5"
   height="80.300003"
   id="rect96" />

			</g>

			<g
   id="g102">
				<rect
   x="1004"
   y="184.7"
   class="st0"
   width="0.5"
   height="81.5"
   id="rect100" />

			</g>

			<g
   id="g106">
				
					<rect
   x="1007.5"
   y="225"
   transform="matrix(0.02339422,-0.9997,0.9997,0.02339422,799.0339,1268.5012)"
   class="st0"
   width="82.5"
   height="0.5"
   id="rect104" />

			</g>

			<g
   id="g110">
				
					<rect
   x="1051.7"
   y="224.89999"
   transform="matrix(0.04674914,-0.9989,0.9989,0.04674914,817.4886,1306.9175)"
   class="st0"
   width="83.599998"
   height="0.5"
   id="rect108" />

			</g>

			<polygon
   class="st13"
   points="913.3,337.1 899.5,337.1 897.6,306.4 913.3,306.4 "
   id="polygon112" />

			<g
   id="g116">
				<polygon
   class="st0"
   points="1127.2,226.5 1127.2,227 884.8,229.3 884.8,228.8 "
   id="polygon114" />

			</g>

			<polygon
   class="st14"
   points="1113.8,348.3 1113.3,354 1032.2,354 1032.2,350.1 "
   id="polygon118" />

			<polygon
   class="st14"
   points="892.3,353.5 960.7,353.5 960.6,350.8 892.2,349.6 "
   id="polygon120" />

			<polygon
   class="st1"
   points="836.5,353.9 890.9,353.5 890.8,350.3 836.4,348.8 "
   id="polygon122" />

			<polygon
   class="st15"
   points="1083.6,264.2 1086.9,184 1045.8,184 1047.9,264.2 "
   id="polygon124" />

			<polygon
   class="st15"
   points="1125.8,205.1 1127.2,182.9 1112.9,183.2 1112.9,205.1 "
   id="polygon126" />

			
				<radialGradient
   id="SVGID_3_"
   cx="1007.8"
   cy="284.63159"
   r="91.264297"
   gradientTransform="matrix(1,0,0,-1,0,402)"
   gradientUnits="userSpaceOnUse">
				<stop
   offset="1.891890e-02"
   style="stop-color:#503B61"
   id="stop128" />

				<stop
   offset="1"
   style="stop-color:#472B55"
   id="stop130" />

			</radialGradient>

			<polygon
   class="st16"
   points="878.9,110.8 878.9,118.9 1136,123.9 1136.7,116.8 "
   id="polygon133"
   style="fill:url(#SVGID_3_)" />

			<g
   id="g137">
				<polygon
   class="st17"
   points="884.3,133.9 1129.1,136.7 1129.1,137 884.3,134.1 "
   id="polygon135" />

			</g>

			<g
   id="g141">
				<polygon
   class="st17"
   points="1127.2,155.6 1127.2,155.8 885.6,160.4 885.6,160.1 "
   id="polygon139" />

			</g>

			<g
   id="g145">
				<polygon
   class="st17"
   points="1125.9,178.2 1126,178.4 886.3,180.7 886.3,180.5 "
   id="polygon143" />

			</g>

			<polygon
   class="st18"
   points="946.1,159.1 952.4,134.9 929.1,134 925.1,159.5 "
   id="polygon147" />

			<polygon
   class="st18"
   points="1030.1,157.9 1027.8,179.3 1025.4,179.3 1027.8,157.9 "
   id="polygon149" />

			<polygon
   class="st19"
   points="1115.7,136.7 1112.9,156 1068.1,156.8 1070.5,136.2 "
   id="polygon151" />

			<polygon
   class="st20"
   points="881.9,186.3 886.5,186.3 884.4,129.1 1129.7,128.9 1129.9,126.7 1133.1,123.9 878.9,118.9 878.9,110.8 818.3,131.5 819.4,141 826.8,140.2 829.4,198.2 828.2,198.4 830.8,267.7 832.6,267.9 836.5,353.9 892.3,353.5 890.5,272.6 1119.3,271.3 1119.5,268.7 1124.7,267.1 884.8,265.3 "
   id="polygon153" />

			<polygon
   class="st20"
   points="1091.6,174.7 1091.6,143.7 1093.5,142.5 1128.1,145.2 1126.4,174.8 "
   id="polygon155" />

			<polygon
   class="st0"
   points="1093.5,142.5 1092.9,173.4 1126.5,173.4 1130,171.8 1095.4,141 "
   id="polygon157" />

			
				<radialGradient
   id="SVGID_4_"
   cx="1116.5264"
   cy="259.9053"
   r="24.868299"
   gradientTransform="matrix(1,0,0,-1,0,402)"
   gradientUnits="userSpaceOnUse">
				<stop
   offset="1.891890e-02"
   style="stop-color:#503B61"
   id="stop159" />

				<stop
   offset="0.9804"
   style="stop-color:#472B55"
   id="stop161" />

			</radialGradient>

			<polygon
   class="st21"
   points="1130,171.8 1133.1,141 1095.4,141 1094.6,171.8 "
   id="polygon164"
   style="fill:url(#SVGID_4_)" />

			
				<radialGradient
   id="SVGID_5_"
   cx="918.42651"
   cy="274.26971"
   r="40.099899"
   gradientTransform="matrix(1,0,0,-1,0,402)"
   gradientUnits="userSpaceOnUse">
				<stop
   offset="1.891890e-02"
   style="stop-color:#503B61"
   id="stop166" />

				<stop
   offset="0.9804"
   style="stop-color:#472B55"
   id="stop168" />

			</radialGradient>

			<polygon
   class="st22"
   points="942.8,176.1 886.3,176.1 884.3,125.9 944.3,127.2 "
   id="polygon171"
   style="fill:url(#SVGID_5_)" />

			<polygon
   class="st0"
   points="883.6,177.3 886.3,176.1 884.3,125.9 881.9,128.1 "
   id="polygon173" />

			<polygon
   class="st20"
   points="886.3,179.5 886.2,176.1 938.8,176.1 936.2,178.8 "
   id="polygon175" />

			<polygon
   class="st0"
   points="883.6,177.3 886.3,176.1 942.8,176.1 941.2,176.8 "
   id="polygon177" />

			<g
   id="g190">
				<polygon
   class="st20"
   points="970.6,157.3 970.6,167.2 996.9,167.2 996.9,156.7 971.4,156.7 "
   id="polygon179" />

				<polygon
   class="st0"
   points="971.4,156.7 972,165.8 997.6,165.8 999.3,164.8 972.6,155.7 "
   id="polygon181" />

				
					<radialGradient
   id="SVGID_6_"
   cx="988.05469"
   cy="245.9657"
   r="10.7302"
   gradientTransform="matrix(1,0,0,-1,0,402)"
   gradientUnits="userSpaceOnUse">
					<stop
   offset="1.891890e-02"
   style="stop-color:#503B61"
   id="stop183" />

					<stop
   offset="0.9804"
   style="stop-color:#472B55"
   id="stop185" />

				</radialGradient>

				<polygon
   class="st23"
   points="999.3,164.8 999.8,155.7 972.6,155.7 972.6,164.8 "
   id="polygon188"
   style="fill:url(#SVGID_6_)" />

			</g>

		</g>

		<g
   id="g340">
			<polygon
   class="st17"
   points="643.3,353.3 683.1,353.3 685.1,236.6 640.2,252.1 "
   id="polygon194" />

			
				<linearGradient
   id="SVGID_7_"
   gradientUnits="userSpaceOnUse"
   x1="764.40002"
   y1="48.099998"
   x2="764.40002"
   y2="213.8"
   gradientTransform="matrix(1,0,0,-1,0,402)">
				<stop
   offset="0"
   style="stop-color:#FFA940"
   id="stop196" />

				<stop
   offset="0.9946"
   style="stop-color:#FFC24E"
   id="stop198" />

			</linearGradient>

			<polygon
   class="st24"
   points="850.9,193.6 836.8,353.9 683.1,353.3 677.9,188.2 "
   id="polygon201"
   style="fill:url(#SVGID_7_)" />

			<polygon
   class="st25"
   points="679,353.3 683.1,353.3 677.9,188.2 671.7,192.7 "
   id="polygon203" />

			<polygon
   class="st26"
   points="769.4,311.1 840.4,311.8 837.2,349.5 769.4,349.5 "
   id="polygon205" />

			<g
   id="g253">
				<polygon
   class="st25"
   points="766.1,312.5 763.9,353.9 692,353.5 690.5,311.8 "
   id="polygon207" />

				<polygon
   class="st26"
   points="756.2,315 754.6,353.8 692,353.5 690.6,314.2 "
   id="polygon209" />

				<polygon
   class="st5"
   points="753.4,316.5 690.6,315.1 692,353.5 752.5,353.3 "
   id="polygon211" />

				<polygon
   class="st26"
   points="711.3,352.8 711.4,315.7 711,315.7 710.9,352.8 "
   id="polygon213" />

				<polygon
   class="st26"
   points="752.7,343.9 752.5,353.3 710.8,353.6 710.9,342.5 "
   id="polygon215" />

				<polygon
   class="st27"
   points="752.5,319.6 711.4,319.4 711,319 753.3,318.7 "
   id="polygon217" />

				<polygon
   class="st27"
   points="752.5,322 711.5,321.8 711.1,321.3 753.4,321.1 "
   id="polygon219" />

				<polygon
   class="st27"
   points="752.6,324.4 711.5,324.2 711.2,323.7 753.4,323.5 "
   id="polygon221" />

				<polygon
   class="st27"
   points="752.7,326.8 711.6,326.5 711.2,326.1 753.5,325.9 "
   id="polygon223" />

				<polygon
   class="st27"
   points="752.7,329.2 711.7,328.9 711.3,328.5 753.5,328.3 "
   id="polygon225" />

				<polygon
   class="st27"
   points="752.8,331.6 711.8,331.3 711.4,330.9 753.6,330.7 "
   id="polygon227" />

				<polygon
   class="st27"
   points="752.8,334 711.8,333.7 711.5,333.3 753.7,333.1 "
   id="polygon229" />

				<polygon
   class="st27"
   points="752.9,336.4 711.9,336.1 711.7,335.2 753.7,335.5 "
   id="polygon231" />

				<polygon
   class="st27"
   points="753,338.8 712,338.4 711.6,338 753.8,337.9 "
   id="polygon233" />

				<polygon
   class="st27"
   points="753,341.2 711.9,341 711.7,340.4 753.8,340.3 "
   id="polygon235" />

				<polygon
   class="st26"
   points="690.6,315.1 711,315.7 710.8,353.6 692,353.5 "
   id="polygon237" />

				<polygon
   class="st5"
   points="692.2,315.8 692.9,352.8 709.5,352.8 709.7,316.2 "
   id="polygon239" />

				<polygon
   class="st28"
   points="704,334.4 697.3,334.1 697.2,330.9 703.9,331.3 "
   id="polygon241" />

				<g
   id="g251">
					<polygon
   class="st29"
   points="736.9,342.5 720.8,342.1 720.1,318 738.9,317.3 "
   id="polygon243" />

					<polygon
   class="st20"
   points="733.9,336.2 734.9,322.1 723.9,322.1 724.3,336.5 "
   id="polygon245" />

					<polygon
   class="st20"
   points="734.9,320.3 734.8,318.8 722.7,319.3 722.7,320.4 "
   id="polygon247" />

					<polygon
   class="st30"
   points="730.7,340.7 730.7,340.3 725.7,340 725.7,340.4 "
   id="polygon249" />

				</g>

			</g>

			<polygon
   class="st5"
   points="837.2,348.8 770.6,348.8 770.6,311.8 840.4,312.6 "
   id="polygon255" />

			
				<linearGradient
   id="SVGID_8_"
   gradientUnits="userSpaceOnUse"
   x1="692.5"
   y1="108.05"
   x2="861.59998"
   y2="108.05"
   gradientTransform="matrix(1,0,0,-1,0,402)">
				<stop
   offset="0"
   style="stop-color:#FFB898"
   id="stop257" />

				<stop
   offset="0.9946"
   style="stop-color:#FFE2C0"
   id="stop259" />

			</linearGradient>

			<polygon
   class="st31"
   points="861.6,284 858.3,303.9 692.5,301.9 692.5,284 "
   id="polygon262"
   style="fill:url(#SVGID_8_)" />

			<polygon
   class="st17"
   points="682.9,303.1 692.5,301.9 692.5,284 682.2,287 "
   id="polygon264" />

			<polygon
   class="st25"
   points="682.9,303.1 858.3,303.9 692.5,301.9 "
   id="polygon266" />

			<g
   id="g270">
				<polygon
   class="st17"
   points="788.9,312 789.2,312 786.1,348.8 785.9,348.8 "
   id="polygon268" />

			</g>

			<g
   id="g274">
				<polygon
   class="st17"
   points="805.7,312.2 805.9,312.2 804.1,348.8 803.9,348.8 "
   id="polygon272" />

			</g>

			<g
   id="g278">
				<polygon
   class="st17"
   points="825.3,312.4 825.6,312.4 823.8,348.8 823.5,348.8 "
   id="polygon276" />

			</g>

			<polygon
   class="st5"
   points="854.9,287.1 853.7,300.9 696,298.5 696,287.1 "
   id="polygon280" />

			<polygon
   class="st17"
   points="852.8,300.8 853.7,300.9 854.9,287.1 853.6,287.1 "
   id="polygon282" />

			<polygon
   class="st10"
   points="826.4,335.8 838.3,336.4 840.1,313.5 770.6,313.5 770.6,331.2 777.9,331.6 778.9,346.7 789.9,346.7 790.7,313.5 827.6,313.3 "
   id="polygon284" />

			<polygon
   class="st10"
   points="700.9,340.3 709.6,338.8 709.7,324 699.5,325.9 "
   id="polygon286" />

			<polygon
   class="st20"
   points="690.6,320.4 690.6,315.1 681.9,314 683.1,353.3 643.3,353.3 640.2,252.1 673.9,240.5 671.7,192.7 677.9,188.2 681,287.3 692.5,284 692.5,301.9 841.2,303.7 840.1,313.5 766.1,312.5 763.9,353.9 746.5,353.8 743.5,319.9 "
   id="polygon288" />

			<polygon
   class="st32"
   points="663,274.7 663,265.3 651.5,267.2 652.2,275.5 "
   id="polygon290" />

			<polygon
   class="st5"
   points="663,265.3 663,274.7 653.9,275.3 653,267 "
   id="polygon292" />

			<g
   id="g314">
				<polygon
   class="st26"
   points="849.7,207.2 844.4,267.1 772.5,267.7 774.4,207.4 "
   id="polygon294" />

				<polygon
   class="st5"
   points="773.5,266.3 844.5,266.3 849.6,208.3 775.4,208.7 "
   id="polygon296" />

				<polygon
   class="st5"
   points="773.5,266.3 844.5,266.3 849.6,208.3 775.4,208.7 "
   id="polygon298" />

				<g
   id="g302">
					<polygon
   class="st17"
   points="795.1,208.6 795.3,208.6 791.6,266.3 791.3,266.3 "
   id="polygon300" />

				</g>

				<g
   id="g306">
					<polygon
   class="st17"
   points="815.2,208.5 815.5,208.5 811.2,266.3 811,266.3 "
   id="polygon304" />

				</g>

				<g
   id="g310">
					<polygon
   class="st17"
   points="837.4,208.5 837.7,208.5 835.2,266.3 834.9,266.3 "
   id="polygon308" />

				</g>

				<polygon
   class="st10"
   points="775.4,208.7 849.6,208.3 845.5,255.6 832.4,254.6 835,212.9 798.9,215.1 796.4,243.2 774.8,240.5 "
   id="polygon312" />

			</g>

			<rect
   x="727.5"
   y="293.60001"
   class="st33"
   width="0.80000001"
   height="0.80000001"
   id="rect316" />

			<rect
   x="811.70001"
   y="293.60001"
   class="st33"
   width="0.80000001"
   height="0.80000001"
   id="rect318" />

			<rect
   x="842.5"
   y="293.60001"
   class="st33"
   width="0.80000001"
   height="0.80000001"
   id="rect320" />

			<rect
   x="749.79999"
   y="293.60001"
   class="st33"
   width="0.80000001"
   height="0.80000001"
   id="rect322" />

			<rect
   x="780.5"
   y="293.60001"
   class="st33"
   width="0.80000001"
   height="0.80000001"
   id="rect324" />

			<g
   id="g338">
				<polygon
   class="st34"
   points="648.1,322.6 630.3,335.2 630.3,338.8 664.8,337.9 674.6,337.9 674.6,321.6 "
   id="polygon326" />

				<polygon
   class="st34"
   points="627.3,338.3 627.3,340.3 662.6,339.3 675.5,338.8 675.5,336.4 653.6,337.9 "
   id="polygon328" />

				<polygon
   class="st34"
   points="673,353.3 674.6,338.8 629.4,340.3 631.9,353.3 "
   id="polygon330" />

				<polygon
   class="st35"
   points="655.7,332.6 637.6,333.1 635.1,334.4 654,334 "
   id="polygon332" />

				<polygon
   class="st36"
   points="675.5,338.8 675.5,336.4 653.6,337.9 653.6,339.5 "
   id="polygon334" />

				<path
   class="st20"
   d="m 674.6,336.4 v -14.8 l -26.5,1 -17.8,12.7 v 3 h -3 v 2 h 2.1 l 2.5,13 h 21.7 v -13 l 14.4,-0.8 v 13.8 h 5 l 1.6,-14.5 h 0.9 v -2.4 z m -1.9,2.4 -19.1,0.7 v -1.6 l 0.7,-0.1 v -2 L 669,323.9 v 12.9 l 3.7,-0.3 z"
   id="path336" />

			</g>

		</g>

		<g
   id="g642">
			<polygon
   class="st37"
   points="650.1,130.2 288.7,119.5 180.7,156.9 415.7,160.9 "
   id="polygon342" />

			
				<linearGradient
   id="SVGID_9_"
   gradientUnits="userSpaceOnUse"
   x1="465.5"
   y1="51.378899"
   x2="465.5"
   y2="269.25131"
   gradientTransform="matrix(1,0,0,-1,0,402)">
				<stop
   offset="0"
   style="stop-color:#FFB898"
   id="stop344" />

				<stop
   offset="0.9946"
   style="stop-color:#FFE2C0"
   id="stop346" />

			</linearGradient>

			<polygon
   class="st38"
   points="638.3,131.9 622.2,353.9 306.5,353.9 292.7,122.2 "
   id="polygon349"
   style="fill:url(#SVGID_9_)" />

			<polygon
   class="st17"
   points="214,353.9 306.5,353.9 292.7,122.2 190.4,154.8 "
   id="polygon351" />

			
				<linearGradient
   id="SVGID_10_"
   gradientUnits="userSpaceOnUse"
   x1="470"
   y1="272.04999"
   x2="470"
   y2="290.2449"
   gradientTransform="matrix(1,0,0,-1,0,402)">
				<stop
   offset="2.159160e-03"
   style="stop-color:#FF2F42"
   id="stop353" />

				<stop
   offset="1"
   style="stop-color:#F42527"
   id="stop355" />

			</linearGradient>

			<polygon
   class="st39"
   points="288.7,110.9 288.7,119.5 650.1,130.2 651.3,123.7 "
   id="polygon358"
   style="fill:url(#SVGID_10_)" />

			<polygon
   class="st37"
   points="180.7,156.9 288.7,119.5 288.7,110.9 178.1,150.8 "
   id="polygon360" />

			<polygon
   class="st40"
   points="640.4,225.3 627,353.9 303,353.9 298.9,277.3 648.1,150.3 644.2,188.2 638.3,188.2 635.3,225.3 "
   id="polygon362" />

			<polygon
   class="st37"
   points="210.2,353.9 303,353.9 298.9,277.3 194.7,220.4 "
   id="polygon364" />

			<polygon
   class="st41"
   points="298.9,277.3 303,275.7 198.2,220.4 194.7,220.4 "
   id="polygon366" />

			<polygon
   class="st42"
   points="300.4,274.3 298.9,277.3 648.1,150.3 638.3,150.3 "
   id="polygon368" />

			<g
   id="g410">
				<g
   id="g372">
					<polygon
   class="st17"
   points="331.2,123.3 333.8,262.1 333.5,262.1 330.9,123.3 "
   id="polygon370" />

				</g>

				<g
   id="g376">
					<polygon
   class="st17"
   points="380.8,124.7 385.3,243.2 385,243.2 380.6,124.7 "
   id="polygon374" />

				</g>

				<g
   id="g380">
					<polygon
   class="st17"
   points="428.2,126 428.4,126 426.1,228.2 425.9,228.2 "
   id="polygon378" />

				</g>

				<g
   id="g384">
					<rect
   x="473.39999"
   y="127.7"
   class="st17"
   width="0.2"
   height="83.099998"
   id="rect382" />

				</g>

				<g
   id="g388">
					<polygon
   class="st17"
   points="521,128.6 521.2,128.6 520.6,193.6 520.4,193.6 "
   id="polygon386" />

				</g>

				<g
   id="g392">
					<polygon
   class="st17"
   points="557.6,129.6 557.8,129.6 556.6,180.4 556.3,180.4 "
   id="polygon390" />

				</g>

				<g
   id="g396">
					<polygon
   class="st17"
   points="602.3,130.2 602.6,130.2 599.9,164.5 599.6,164.5 "
   id="polygon394" />

				</g>

				<g
   id="g400">
					
						<rect
   x="440.89999"
   y="21"
   transform="matrix(0.01642598,-0.9999,0.9999,0.01642598,266.9423,605.0589)"
   class="st17"
   width="0.30000001"
   height="291.60001"
   id="rect398" />

				</g>

				<g
   id="g404">
					
						<rect
   x="397.89999"
   y="100"
   transform="matrix(0.00747721,-1,1,0.00747721,194.3389,597.3237)"
   class="st17"
   width="0.30000001"
   height="201.5"
   id="rect402" />

				</g>

				<g
   id="g408">
					<polygon
   class="st17"
   points="404,236.2 404,236.4 299.6,238.2 299.6,238 "
   id="polygon406" />

				</g>

			</g>

			<g
   id="g456">
				<g
   id="g414">
					<polygon
   class="st43"
   points="340.6,353.9 340.3,353.9 336.9,263.5 333.6,262.2 333.7,262 337.2,263.3 337.2,263.4 "
   id="polygon412" />

				</g>

				<g
   id="g418">
					<polygon
   class="st43"
   points="391.2,353.9 391,353.9 390,244.2 385.1,243.3 385.2,243.1 390.3,244 390.3,244.1 "
   id="polygon416" />

				</g>

				<g
   id="g422">
					<polygon
   class="st43"
   points="431,353.9 430.7,353.9 430.7,229.2 425.8,228.4 425.8,228.1 431,229 "
   id="polygon420" />

				</g>

				<g
   id="g426">
					<polygon
   class="st43"
   points="478.7,211.6 473.6,353.9 473.4,353.9 478.4,211.7 473.5,210.9 473.5,210.7 478.7,211.5 "
   id="polygon424" />

				</g>

				<g
   id="g430">
					<polygon
   class="st43"
   points="525.7,194.4 516.7,353.9 516.5,353.9 525.4,194.5 520.5,193.7 520.5,193.4 525.7,194.3 "
   id="polygon428" />

				</g>

				<g
   id="g434">
					<polygon
   class="st43"
   points="561.7,181.2 549.3,353.9 549.1,353.9 561.4,181.3 556.5,180.5 556.5,180.2 561.7,181.1 "
   id="polygon432" />

				</g>

				<g
   id="g438">
					<polygon
   class="st43"
   points="605.1,165.3 592.7,353.9 592.5,353.9 604.8,165.4 599.9,164.6 599.9,164.3 605.1,165.2 "
   id="polygon436" />

				</g>

				<g
   id="g442">
					<polygon
   class="st43"
   points="635.3,273.6 635.3,273.8 298.9,277.4 298.9,277.1 "
   id="polygon440" />

				</g>

				<g
   id="g446">
					<polygon
   class="st43"
   points="640.4,225.2 640.4,225.4 430.9,229.2 430.8,228.9 "
   id="polygon444" />

				</g>

				<g
   id="g450">
					<polygon
   class="st43"
   points="644.2,188.1 644.2,188.3 535.6,192.8 535.6,192.6 "
   id="polygon448" />

				</g>

				<g
   id="g454">
					
						<rect
   x="301.39999"
   y="320.5"
   transform="matrix(0.9997,-0.02359394,0.02359394,0.9997,-7.4354,11.0885)"
   class="st43"
   width="329.60001"
   height="0.30000001"
   id="rect452" />

				</g>

			</g>

			<g
   id="g535">
				<polygon
   class="st44"
   points="520.6,311.8 516.6,353.9 404.9,353.8 403.2,311.8 "
   id="polygon458" />

				<polygon
   class="st41"
   points="511.4,353.8 404.9,353.8 403.2,311.8 515,311.8 "
   id="polygon460" />

				<polygon
   class="st5"
   points="514.1,313 403.3,313 405,353.5 511,353.7 "
   id="polygon462" />

				<g
   id="g531">
					<g
   id="g471">
						
							<linearGradient
   id="SVGID_11_"
   gradientUnits="userSpaceOnUse"
   x1="403.10001"
   y1="68.699997"
   x2="514.40002"
   y2="68.699997"
   gradientTransform="matrix(1,0,0,-1,0,402)">
							<stop
   offset="5.405410e-03"
   style="stop-color:#FFE2C0"
   id="stop464" />

							<stop
   offset="1"
   style="stop-color:#FFB898"
   id="stop466" />

						</linearGradient>

						<path
   class="st45"
   d="M 511.2,353.9 H 511 l -106.2,-0.2 -1.7,-41 h 111.3 v 0.3 z m -106,-0.7 105.5,0.2 3,-40.1 H 403.5 Z"
   id="path469"
   style="fill:url(#SVGID_11_)" />

					</g>

					<g
   id="g480">
						
							<linearGradient
   id="SVGID_12_"
   gradientUnits="userSpaceOnUse"
   x1="487.43701"
   y1="68.550003"
   x2="490.69971"
   y2="68.550003"
   gradientTransform="matrix(1,0,0,-1,0,402)">
							<stop
   offset="5.405410e-03"
   style="stop-color:#FFE2C0"
   id="stop473" />

							<stop
   offset="1"
   style="stop-color:#FFB898"
   id="stop475" />

						</linearGradient>

						<polygon
   class="st46"
   points="490.2,313 490.7,313 487.9,353.9 487.4,353.8 "
   id="polygon478"
   style="fill:url(#SVGID_12_)" />

					</g>

					<g
   id="g489">
						
							<linearGradient
   id="SVGID_13_"
   gradientUnits="userSpaceOnUse"
   x1="427.33591"
   y1="68.849998"
   x2="429.0513"
   y2="68.849998"
   gradientTransform="matrix(1,0,0,-1,0,402)">
							<stop
   offset="5.405410e-03"
   style="stop-color:#FFE2C0"
   id="stop482" />

							<stop
   offset="1"
   style="stop-color:#FFB898"
   id="stop484" />

						</linearGradient>

						<polygon
   class="st47"
   points="427.8,313 429.1,353.3 428.6,353.3 427.3,313 "
   id="polygon487"
   style="fill:url(#SVGID_13_)" />

					</g>

					<g
   id="g498">
						
							<linearGradient
   id="SVGID_14_"
   gradientUnits="userSpaceOnUse"
   x1="404.29999"
   y1="67.25"
   x2="428.20001"
   y2="67.25"
   gradientTransform="matrix(1,0,0,-1,0,402)">
							<stop
   offset="5.405410e-03"
   style="stop-color:#FFE2C0"
   id="stop491" />

							<stop
   offset="1"
   style="stop-color:#FFB898"
   id="stop493" />

						</linearGradient>

						<rect
   x="404.29999"
   y="334.5"
   class="st48"
   width="23.9"
   height="0.5"
   id="rect496"
   style="fill:url(#SVGID_14_)" />

					</g>

					<g
   id="g507">
						
							<linearGradient
   id="SVGID_15_"
   gradientUnits="userSpaceOnUse"
   x1="489.064"
   y1="67.25"
   x2="511.73679"
   y2="67.25"
   gradientTransform="matrix(1,0,0,-1,0,402)">
							<stop
   offset="5.405410e-03"
   style="stop-color:#FFE2C0"
   id="stop500" />

							<stop
   offset="1"
   style="stop-color:#FFB898"
   id="stop502" />

						</linearGradient>

						<rect
   x="489.10001"
   y="334.5"
   class="st49"
   width="22.700001"
   height="0.5"
   id="rect505"
   style="fill:url(#SVGID_15_)" />

					</g>

					<g
   id="g516">
						
							<linearGradient
   id="SVGID_16_"
   gradientUnits="userSpaceOnUse"
   x1="446.7168"
   y1="68.650002"
   x2="447.4014"
   y2="68.650002"
   gradientTransform="matrix(1,0,0,-1,0,402)">
							<stop
   offset="5.405410e-03"
   style="stop-color:#FFE2C0"
   id="stop509" />

							<stop
   offset="1"
   style="stop-color:#FFB898"
   id="stop511" />

						</linearGradient>

						<polygon
   class="st50"
   points="446.9,313 447.4,313 447.2,353.7 446.7,353.7 "
   id="polygon514"
   style="fill:url(#SVGID_16_)" />

					</g>

					<g
   id="g525">
						
							<linearGradient
   id="SVGID_17_"
   gradientUnits="userSpaceOnUse"
   x1="470.603"
   y1="68.650002"
   x2="471.25049"
   y2="68.650002"
   gradientTransform="matrix(1,0,0,-1,0,402)">
							<stop
   offset="5.405410e-03"
   style="stop-color:#FFE2C0"
   id="stop518" />

							<stop
   offset="1"
   style="stop-color:#FFB898"
   id="stop520" />

						</linearGradient>

						<polygon
   class="st51"
   points="470.8,313 471.3,313 471.1,353.7 470.6,353.7 "
   id="polygon523"
   style="fill:url(#SVGID_17_)" />

					</g>

					<polygon
   class="st12"
   points="404.3,334.7 428.2,334.7 428.8,353.3 405,353.5 "
   id="polygon527" />

					<polygon
   class="st12"
   points="489.1,334.7 512.4,334.7 511,353.7 487.7,353.8 "
   id="polygon529" />

				</g>

				<polygon
   class="st52"
   points="443.9,328.5 443.9,332.5 432.9,333.2 432.4,329.4 "
   id="polygon533" />

			</g>

			<polygon
   class="st5"
   points="209.8,208.2 207.3,181.4 295.2,164.5 473.5,167.4 473.5,201.5 297.3,200 "
   id="polygon537" />

			<polygon
   class="st6"
   points="473.5,201.5 473.5,167.4 295.2,164.5 297.3,200 "
   id="polygon539" />

			<polygon
   class="st17"
   points="471.8,201.4 473.5,201.5 473.5,167.4 471.8,167.4 "
   id="polygon541" />

			<polygon
   class="st53"
   points="211.7,208 209.8,208.2 207.3,181.4 209.5,180.9 "
   id="polygon543" />

			<polygon
   class="st10"
   points="408.9,196 412.9,196.2 411.8,169.2 457.8,169.2 455.2,201.1 471.8,201.4 471.8,168.2 295.3,166.9 296.1,180.4 371.2,188.2 373.9,200.8 388.3,200.7 388.3,178 408.9,174.4 "
   id="polygon545" />

			<polygon
   class="st5"
   points="560.8,191.7 638.3,188.2 635.3,225.3 558.3,226.8 "
   id="polygon547" />

			<polygon
   class="st6"
   points="638,192.7 635.3,225.3 558.3,226.8 560.6,194.6 "
   id="polygon549" />

			<polygon
   class="st10"
   points="638,192.7 560.6,194.6 604.9,193.6 601.1,224 604.9,224 607.3,209.7 636.5,210.8 "
   id="polygon551" />

			<polygon
   class="st54"
   points="595,317.5 597.5,274.5 554.9,274.6 551.7,318.6 "
   id="polygon553" />

			<polygon
   class="st54"
   points="475.7,275.9 478,228.2 430.8,229.1 430.8,275 "
   id="polygon555" />

			<polygon
   class="st55"
   points="554.9,274.6 558.3,226.8 523.7,227.4 520.8,274.5 "
   id="polygon557" />

			<polygon
   class="st18"
   points="520.5,168.2 521.1,128.6 473.5,127.7 474.1,167.3 "
   id="polygon559" />

			<polygon
   class="st18"
   points="384.9,236.3 383.6,200.8 332.4,200.3 333,237.2 "
   id="polygon561" />

			<polygon
   class="st55"
   points="391.1,353.9 391.1,322.4 339.3,323.7 340.5,353.3 "
   id="polygon563" />

			<polygon
   class="st56"
   points="541.7,189 540.2,186.3 396.1,239.2 400.1,240.5 "
   id="polygon565" />

			
				<linearGradient
   id="SVGID_18_"
   gradientUnits="userSpaceOnUse"
   x1="311"
   y1="105.55"
   x2="657.59998"
   y2="105.55"
   gradientTransform="matrix(1,0,0,-1,0,402)">
				<stop
   offset="0"
   style="stop-color:#FFB898"
   id="stop567" />

				<stop
   offset="0.9946"
   style="stop-color:#FFE2C0"
   id="stop569" />

			</linearGradient>

			<polygon
   class="st57"
   points="311,301.9 311,296.5 657.6,291 657.6,298.5 "
   id="polygon572"
   style="fill:url(#SVGID_18_)" />

			<polygon
   class="st17"
   points="300.3,303.1 311,301.9 311,296.5 300.1,299.3 "
   id="polygon574" />

			<polygon
   class="st58"
   points="300.3,303.1 311,301.9 657.6,298.5 632.4,301.9 "
   id="polygon576" />

			<polygon
   class="st20"
   points="657.6,298.5 311,301.9 300.3,303.1 298.9,277.3 301.7,273.7 292.7,128.6 638,135.7 638.3,131.9 292.7,122.2 288.7,119.5 288.7,110.9 178.1,150.8 180.7,156.9 190.6,156.9 198.2,220.4 194.7,220.4 210.2,353.9 303,353.9 301.7,329.5 403.5,325.4 404.3,341.2 518.1,338.1 519,328.7 629.8,327.2 632.4,301.9 "
   id="polygon578" />

			<g
   id="g589">
				<polygon
   class="st17"
   points="376,353.9 375.3,301.3 364.4,302.7 367.2,353.9 "
   id="polygon580" />

				
					<linearGradient
   id="SVGID_19_"
   gradientUnits="userSpaceOnUse"
   x1="377.60001"
   y1="48.099998"
   x2="377.60001"
   y2="100.8"
   gradientTransform="matrix(1,0,0,-1,0,402)">
					<stop
   offset="0"
   style="stop-color:#FFB898"
   id="stop582" />

					<stop
   offset="0.9946"
   style="stop-color:#FFE2C0"
   id="stop584" />

				</linearGradient>

				<polygon
   class="st59"
   points="379.9,301.2 375.3,301.3 376,353.9 379.5,353.9 "
   id="polygon587"
   style="fill:url(#SVGID_19_)" />

			</g>

			<g
   id="g604">
				<polygon
   class="st17"
   points="558.2,353.9 561.5,301.3 550.6,302.2 549.4,353.9 "
   id="polygon591" />

				
					<linearGradient
   id="SVGID_20_"
   gradientUnits="userSpaceOnUse"
   x1="562.09998"
   y1="48.099998"
   x2="562.09998"
   y2="100.8"
   gradientTransform="matrix(1,0,0,-1,0,402)">
					<stop
   offset="0"
   style="stop-color:#FFB898"
   id="stop593" />

					<stop
   offset="0.9946"
   style="stop-color:#FFE2C0"
   id="stop595" />

				</linearGradient>

				<polygon
   class="st60"
   points="566,301.2 561.5,301.3 558.2,353.9 561.6,353.9 "
   id="polygon598"
   style="fill:url(#SVGID_20_)" />

				<polygon
   class="st20"
   points="565.6,305.8 561.2,305.2 550,328.7 550.6,302.2 561.5,301.3 566,301.2 "
   id="polygon600" />

				<polygon
   class="st20"
   points="379.9,302.8 375.3,302.9 365.7,326.9 364.4,302.7 375.3,301.3 379.9,301.2 "
   id="polygon602" />

			</g>

			<g
   id="g632">
				<polygon
   class="st20"
   points="635.2,275.5 637.4,251.6 602.4,251.6 602.4,275.5 "
   id="polygon606" />

				<polygon
   class="st61"
   points="643.6,267.1 645.1,243.2 612.1,243.2 612.1,267.1 "
   id="polygon608" />

				<polygon
   class="st62"
   points="612.1,243.2 604.9,244.7 604.9,267.9 612.1,267.1 "
   id="polygon610" />

				<polygon
   class="st63"
   points="643.6,267.1 612.1,267.1 604.9,267.9 635.9,268.2 "
   id="polygon612" />

				<circle
   class="st64"
   cx="622.5"
   cy="255.60001"
   r="8.5"
   id="circle614" />

				<polygon
   class="st65"
   points="644,247 642.9,262.9 631.5,262.9 631.9,247 "
   id="polygon616" />

				<g
   id="g630">
					<rect
   x="631.90002"
   y="251"
   class="st64"
   width="11"
   height="0.60000002"
   id="rect618" />

					<rect
   x="631.90002"
   y="252.60001"
   class="st64"
   width="11"
   height="0.60000002"
   id="rect620" />

					<rect
   x="631.90002"
   y="254.3"
   class="st64"
   width="11"
   height="0.60000002"
   id="rect622" />

					<rect
   x="631.90002"
   y="256"
   class="st64"
   width="11"
   height="0.60000002"
   id="rect624" />

					<rect
   x="631.90002"
   y="257.60001"
   class="st64"
   width="11"
   height="0.60000002"
   id="rect626" />

					<rect
   x="631.90002"
   y="259.29999"
   class="st64"
   width="11"
   height="0.60000002"
   id="rect628" />

				</g>

			</g>

			<polygon
   class="st14"
   points="591,306.4 565.6,305.8 561.9,351.1 588.1,351.2 "
   id="polygon634" />

			<polygon
   class="st66"
   points="586.5,349.8 564.4,349.8 566.4,307.3 589.4,307.7 "
   id="polygon636" />

			<polygon
   class="st67"
   points="564.4,349.8 586.5,349.8 588.4,322.2 565,338.3 "
   id="polygon638" />

			<polygon
   class="st68"
   points="565,338.3 588.4,322.2 588.7,317.7 565.4,329.2 "
   id="polygon640" />

		</g>

	</g>

</g>
      <g
         id="g654"
         transform="translate(17.172593,-67.680221)">
	<path
   d="m 748.1,167.7 c 0.4,-0.4 1,-0.6 1.6,-0.6 0.6,0 1.1,0.2 1.6,0.6 0.5,0.4 0.6,0.9 0.6,1.6 l -0.6,19.6 c 0,0.4 0.2,0.6 0.6,0.6 h 0.8 v 1.6 h -0.8 c -0.7,0 -1.2,-0.2 -1.6,-0.6 -0.4,-0.4 -0.6,-0.9 -0.6,-1.6 l 0.6,-19.6 c 0,-0.4 -0.2,-0.6 -0.6,-0.6 -0.4,0 -0.6,0.2 -0.6,0.6 l -0.4,15.4 c 0,1 -0.4,1.9 -1.1,2.6 -0.7,0.7 -1.6,1 -2.6,0.9 -1,0 -1.9,-0.4 -2.6,-1.1 -0.7,-0.7 -1,-1.5 -0.9,-2.6 l 0.3,-9.8 c 0,-0.4 -0.2,-0.6 -0.6,-0.6 -0.4,0 -0.6,0.2 -0.6,0.6 l -0.3,9.8 c 0,1 -0.4,1.9 -1.1,2.6 -0.7,0.7 -1.5,1 -2.6,0.9 -1.1,0 -1.9,-0.4 -2.6,-1.1 -0.7,-0.7 -1,-1.5 -0.9,-2.6 l 0.4,-15.4 c 0,-0.4 -0.2,-0.6 -0.6,-0.6 -0.4,0 -0.6,0.2 -0.6,0.6 l -0.6,19.6 c 0,0.6 -0.2,1.1 -0.6,1.6 -0.4,0.5 -0.9,0.6 -1.6,0.6 h -0.8 v -1.6 h 0.8 c 0.4,0 0.6,-0.2 0.6,-0.6 l 0.6,-19.6 c 0,-0.6 0.2,-1.2 0.6,-1.6 0.4,-0.4 0.9,-0.6 1.6,-0.6 0.6,0 1.2,0.2 1.6,0.6 0.4,0.4 0.6,0.9 0.6,1.6 l -0.4,15.4 c 0,0.6 0.2,1.1 0.6,1.5 0.4,0.4 0.9,0.6 1.5,0.6 0.6,0 1.1,-0.2 1.5,-0.6 0.4,-0.4 0.6,-0.9 0.6,-1.5 l 0.3,-9.8 c 0,-0.6 0.2,-1.2 0.6,-1.6 0.4,-0.4 0.9,-0.6 1.6,-0.6 0.7,0 1.2,0.2 1.6,0.6 0.4,0.4 0.6,0.9 0.6,1.6 l -0.3,9.8 c 0,0.6 0.2,1.1 0.6,1.5 0.4,0.4 0.9,0.6 1.5,0.6 1.3,0 2,-0.6 2.1,-1.9 l 0.4,-15.4 c -0.5,-0.5 -0.3,-1 0.2,-1.4 z"
   id="path648" />

	<path
   d="m 769.4,167.7 c 0.6,0 1.2,0.2 1.6,0.6 0.4,0.4 0.6,0.9 0.6,1.6 0,0.6 -0.2,1.2 -0.6,1.6 -0.4,0.4 -1,0.6 -1.6,0.6 l -8.4,-0.2 c -0.6,0 -1.1,0.2 -1.5,0.6 -0.4,0.4 -0.6,0.9 -0.6,1.5 0,0.6 0.2,1.1 0.6,1.5 0.4,0.4 0.9,0.6 1.5,0.6 l 5.6,0.2 c 0.6,0 1.2,0.2 1.6,0.6 0.4,0.4 0.6,0.9 0.6,1.6 0,0.7 -0.2,1.2 -0.6,1.6 -0.4,0.4 -0.9,0.6 -1.6,0.6 l -5.6,-0.2 c -0.6,0 -1.1,0.2 -1.5,0.6 -0.4,0.4 -0.6,0.9 -0.6,1.5 0,1.3 0.6,2 1.9,2.1 l 8.4,0.2 c 0.6,0 1.2,0.2 1.6,0.6 0.4,0.4 0.6,1 0.6,1.6 0,0.6 -0.2,1.1 -0.6,1.6 -0.4,0.4 -1,0.6 -1.6,0.6 l -9.8,-0.3 c -0.4,0 -0.6,0.2 -0.6,0.6 0,0.4 0.2,0.6 0.6,0.6 l 13.4,0.4 v 1.6 l -13.4,-0.4 c -0.6,0 -1.2,-0.2 -1.6,-0.6 -0.4,-0.4 -0.6,-0.9 -0.6,-1.6 0,-0.6 0.2,-1.2 0.6,-1.6 0.4,-0.4 0.9,-0.6 1.6,-0.6 l 9.8,0.3 c 0.4,0 0.6,-0.2 0.6,-0.6 0,-0.4 -0.2,-0.6 -0.6,-0.6 l -8.4,-0.2 c -1,0 -1.9,-0.4 -2.6,-1.1 -0.7,-0.7 -1,-1.6 -0.9,-2.6 0,-1 0.4,-1.9 1.1,-2.6 0.7,-0.7 1.5,-1 2.6,-0.9 l 5.6,0.2 c 0.4,0 0.6,-0.2 0.6,-0.6 0,-0.4 -0.2,-0.6 -0.6,-0.6 l -5.6,-0.2 c -1,0 -1.9,-0.4 -2.6,-1.1 -0.7,-0.7 -1,-1.5 -0.9,-2.6 0,-1 0.4,-1.9 1.1,-2.6 0.7,-0.7 1.5,-1 2.6,-0.9 l 8.4,0.2 c 0.4,0 0.6,-0.2 0.6,-0.6 0,-0.4 -0.2,-0.6 -0.6,-0.6 l -13.2,-0.4 -0.6,20.2 c 0,0.6 -0.2,1.2 -0.6,1.6 -0.4,0.4 -0.9,0.6 -1.6,0.6 h -0.8 v -1.6 h 0.8 c 0.4,0 0.6,-0.2 0.6,-0.6 l 0.6,-21.8 14.9,0.4 z"
   id="path650" />

	<path
   d="m 786.4,168.2 c 1.2,0 2.2,0.4 3.1,1.1 1.2,0.9 1.8,2.3 1.8,4.1 -0.1,1.8 -0.7,3.1 -2,3.9 -0.9,0.7 -2,0.9 -3.1,0.9 l -7,-0.2 c -0.4,0 -0.6,0.2 -0.6,0.6 0,0.4 0.2,0.6 0.6,0.6 l 7,0.2 c 1.2,0 2.2,0.4 3.1,1.1 1.2,0.9 1.8,2.3 1.8,4.1 -0.1,1.8 -0.7,3.1 -2,3.9 -0.9,0.7 -2,0.9 -3.1,0.9 l -7,-0.2 c -0.4,0 -0.6,0.2 -0.6,0.6 0,0.4 0.2,0.6 0.6,0.6 l 14.8,0.4 v 1.6 L 779,192 c -0.6,0 -1.2,-0.2 -1.6,-0.6 -0.4,-0.4 -0.6,-0.9 -0.6,-1.6 0,-0.6 0.2,-1.2 0.6,-1.6 0.4,-0.4 0.9,-0.6 1.6,-0.6 l 7,0.2 c 0.6,0 1.2,-0.2 1.8,-0.4 1.1,-0.6 1.6,-1.6 1.7,-2.9 0.1,-1.3 -0.4,-2.4 -1.5,-2.9 -0.6,-0.3 -1.2,-0.5 -1.8,-0.6 l -7,-0.2 c -0.6,0 -1.2,-0.2 -1.6,-0.6 -0.4,-0.4 -0.6,-0.9 -0.6,-1.6 0,-0.6 0.2,-1.1 0.6,-1.6 0.4,-0.5 1,-0.6 1.6,-0.6 l 7,0.2 c 0.6,0 1.2,-0.2 1.8,-0.4 1.1,-0.6 1.6,-1.5 1.7,-2.9 0,-1.4 -0.4,-2.4 -1.5,-2.9 -0.6,-0.3 -1.2,-0.5 -1.8,-0.6 l -10.4,-0.3 -0.6,20.2 c 0,0.6 -0.2,1.2 -0.6,1.6 -0.4,0.4 -0.9,0.6 -1.6,0.6 h -0.8 v -1.6 h 0.8 c 0.4,0 0.6,-0.2 0.6,-0.6 l 0.6,-21.8 z"
   id="path652" />

</g>
      <g
         id="g678"
         transform="translate(17.172593,-67.680221)">
	<path
   d="m 899.4,89.3 c 1.4,-0.9 2.9,-1.3 4.5,-1.3 1.6,0 3.1,0.6 4.4,1.6 1.7,1.3 2.5,3.3 2.4,5.8 v 0.7 c 0,0.6 -0.2,1.2 -0.7,1.6 -0.4,0.4 -1,0.6 -1.6,0.6 -0.6,0 -1.2,-0.2 -1.6,-0.7 -0.4,-0.4 -0.6,-1 -0.6,-1.6 v -0.7 c 0,-1.1 -0.4,-1.9 -1.2,-2.4 -0.5,-0.3 -0.9,-0.4 -1.4,-0.4 -0.5,0 -1,0.1 -1.5,0.3 -0.9,0.4 -1.3,1.2 -1.3,2.3 0,1.1 0.4,1.9 1.2,2.3 0.5,0.3 1,0.4 1.5,0.4 1.7,0.1 3.1,0.6 4.4,1.6 1.7,1.3 2.5,3.2 2.4,5.7 -0.1,2.4 -1,4.2 -2.6,5.4 l 3.9,0.1 -0.1,1.6 -8.5,-0.2 0.1,-1.6 c 1,0 1.9,-0.2 2.8,-0.6 1.8,-0.9 2.7,-2.4 2.8,-4.7 0.1,-2.3 -0.8,-3.9 -2.5,-4.9 -0.7,-0.4 -1.6,-0.7 -2.9,-0.8 -2.8,-0.4 -4.2,-1.8 -4.1,-4.4 0,-1.3 0.5,-2.3 1.3,-3.1 0.8,-0.8 1.9,-1.2 3.1,-1.1 1.3,0 2.3,0.5 3.1,1.3 0.8,0.8 1.1,1.9 1.1,3.1 v 0.7 c 0,0.4 0.2,0.6 0.6,0.6 0.4,0 0.6,-0.2 0.6,-0.6 v -0.7 c 0.1,-2.3 -0.8,-3.9 -2.5,-4.9 -0.9,-0.5 -1.8,-0.8 -2.8,-0.8 -1,0 -1.9,0.2 -2.9,0.6 -1.8,0.9 -2.7,2.4 -2.8,4.7 -0.1,2.3 0.8,3.9 2.5,4.9 0.9,0.5 1.8,0.8 2.8,0.8 1.2,0 2.3,0.5 3,1.3 0.8,0.8 1.2,1.9 1.1,3.1 0,1.3 -0.5,2.3 -1.3,3.1 -0.8,0.8 -1.9,1.2 -3.1,1.1 -1.3,0 -2.3,-0.5 -3.1,-1.3 -0.8,-0.8 -1.2,-1.9 -1.1,-3.1 v -1.4 c 0,-0.4 -0.2,-0.6 -0.6,-0.6 -0.4,0 -0.6,0.2 -0.6,0.6 l -0.2,6.3 c 0,0.6 -0.2,1.1 -0.7,1.5 -0.4,0.4 -1,0.6 -1.6,0.6 h -0.8 l 0.1,-1.6 h 0.8 c 0.4,0 0.6,-0.2 0.6,-0.6 l 0.2,-6.3 c 0,-0.7 0.2,-1.2 0.7,-1.6 0.4,-0.4 0.9,-0.6 1.6,-0.5 0.7,0 1.2,0.2 1.6,0.7 0.4,0.4 0.6,0.9 0.5,1.6 v 1.4 c 0,1.1 0.4,1.9 1.2,2.4 0.5,0.3 0.9,0.4 1.4,0.4 0.5,0 1,-0.1 1.5,-0.3 0.9,-0.4 1.3,-1.2 1.3,-2.3 0,-1.1 -0.4,-1.9 -1.2,-2.3 -0.5,-0.3 -0.9,-0.4 -1.4,-0.4 -1.7,-0.1 -3.1,-0.6 -4.4,-1.6 -1.7,-1.3 -2.5,-3.2 -2.5,-5.7 0.3,-2.6 1.3,-4.4 3.1,-5.7 z"
   id="path656" />

	<path
   d="m 916.8,91.3 c 2.1,-2 4.7,-3 7.6,-3 3,0.1 5.5,1.2 7.5,3.2 2,2.1 3,4.7 3,7.7 -0.1,2.5 -0.9,4.7 -2.5,6.6 -1.7,1.9 -3.7,3.1 -6.2,3.5 v 1.5 l 9.9,0.2 -0.1,1.6 -11.5,-0.3 0.1,-4.4 0.7,-0.1 c 2.2,-0.2 4.1,-1.2 5.7,-2.8 1.5,-1.7 2.3,-3.6 2.4,-5.9 0.1,-2.5 -0.7,-4.7 -2.4,-6.5 -1.7,-1.8 -3.8,-2.8 -6.4,-2.8 -2.5,-0.1 -4.7,0.7 -6.5,2.4 -1.8,1.7 -2.8,3.8 -2.8,6.3 -0.1,2.2 0.6,4.2 2,6 1.4,1.8 3.2,2.8 5.5,3.2 l 0.7,0.1 -0.1,4.4 -11.5,-0.3 0.1,-1.6 9.9,0.2 V 109 c -2.4,-0.6 -4.4,-1.9 -6,-3.9 -1.5,-2 -2.2,-4.3 -2.3,-6.8 -0.1,-2.5 1.1,-5 3.2,-7 z"
   id="path658" />

	<path
   d="m 942.5,90.2 c 1.6,-0.7 3.2,-1.1 4.7,-1.1 1.5,0 3.1,0.5 4.6,1.3 3,1.6 4.4,4.4 4.4,8.2 0,0.6 -0.2,1.1 -0.7,1.5 -0.4,0.4 -1,0.6 -1.6,0.6 -0.6,0 -1.2,-0.2 -1.5,-0.7 -0.3,-0.5 -0.6,-1 -0.6,-1.6 0,-0.8 -0.2,-1.7 -0.6,-2.5 -0.7,-1.6 -2.1,-2.4 -4.1,-2.5 -2,-0.1 -3.4,0.7 -4.2,2.2 -0.4,0.8 -0.7,1.6 -0.7,2.5 l -0.1,2.8 c 0,0.8 0.2,1.7 0.5,2.5 0.7,1.6 2.1,2.4 4.1,2.4 l 4.3,0.1 c 1.2,0 2.2,0.4 3.1,1.1 1.2,0.9 1.8,2.3 1.7,4 0,0.4 0.2,0.6 0.6,0.6 h 0.8 l -0.1,1.6 h -0.8 c -0.7,0 -1.2,-0.2 -1.6,-0.6 -0.4,-0.4 -0.6,-0.9 -0.5,-1.6 0,-1.4 -0.5,-2.4 -1.5,-3 -0.6,-0.3 -1.2,-0.5 -1.8,-0.5 l -4.3,-0.1 c -2.2,-0.1 -3.9,-0.9 -5,-2.5 -0.8,-1.2 -1.2,-2.6 -1.2,-4.1 l 0.1,-2.8 c 0,-1.5 0.5,-2.9 1.4,-4 1.2,-1.5 2.9,-2.3 5.2,-2.2 2.2,0.1 3.9,0.9 5,2.5 0.8,1.2 1.2,2.5 1.2,4.1 0,0.4 0.2,0.6 0.6,0.6 0.4,0 0.6,-0.2 0.6,-0.6 0.1,-3.1 -1.1,-5.4 -3.6,-6.7 -1.3,-0.7 -2.6,-1.1 -3.9,-1.1 -1.3,0 -2.7,0.2 -4,0.9 -2.5,1.2 -3.8,3.3 -3.9,6.5 l -0.1,2.8 c -0.1,3.2 1.1,5.4 3.6,6.7 1.3,0.7 2.6,1.1 3.9,1.1 l 4.3,0.1 c 0.7,0 1.2,0.2 1.6,0.7 0.4,0.4 0.6,0.9 0.6,1.6 0,0.6 -0.2,1.1 -0.7,1.5 -0.5,0.4 -1,0.6 -1.6,0.6 l -14.9,-0.4 0.1,-1.6 14.8,0.4 c 0.4,0 0.6,-0.2 0.6,-0.6 0,-0.4 -0.2,-0.6 -0.6,-0.6 l -4.3,-0.1 c -1.5,0 -3,-0.5 -4.6,-1.3 -3,-1.6 -4.4,-4.4 -4.4,-8.2 l 0.1,-2.8 c 0.3,-3.7 1.9,-6.3 5,-7.7 z"
   id="path660" />

	<path
   d="m 964.4,111.9 v 1.5 h -0.8 c -0.6,0 -1.2,-0.2 -1.6,-0.7 -0.4,-0.5 -0.6,-1 -0.6,-1.6 l 0.4,-16.8 c 0,-0.4 -0.2,-0.6 -0.6,-0.6 -0.4,0 -0.6,0.2 -0.6,0.6 l -0.4,16.8 c 0,0.6 -0.2,1.2 -0.7,1.6 -0.4,0.4 -1,0.6 -1.6,0.6 h -0.8 l 0.1,-1.6 h 0.8 c 0.4,0 0.6,-0.2 0.6,-0.6 L 959,94.3 c 0,-0.5 0.2,-1 0.5,-1.4 -0.3,-0.4 -0.5,-0.9 -0.4,-1.4 0,-0.6 0.3,-1.1 0.7,-1.5 0.4,-0.4 1,-0.6 1.6,-0.6 0.6,0 1.1,0.3 1.5,0.7 0.4,0.4 0.6,1 0.6,1.6 0,0.5 -0.2,1 -0.5,1.4 0.3,0.4 0.5,0.9 0.4,1.4 l -0.4,16.8 c 0,0.4 0.2,0.6 0.6,0.6 z m -3.7,-20.4 c 0,0.4 0.2,0.6 0.6,0.6 0.4,0 0.6,-0.2 0.6,-0.6 0,-0.4 -0.2,-0.6 -0.6,-0.6 -0.4,0 -0.6,0.2 -0.6,0.6 z"
   id="path662" />

	<path
   d="m 978,89.7 6.1,13.1 -8.3,-0.2 c -0.4,0 -0.6,0.2 -0.6,0.6 0,0.4 0.2,0.6 0.6,0.6 l 8.9,0.2 4,8.6 h 0.8 l -0.1,1.6 -1.7,-0.1 -4.1,-8.6 -7.9,-0.2 c -0.6,0 -1.2,-0.2 -1.6,-0.7 -0.4,-0.4 -0.6,-1 -0.6,-1.6 0,-0.7 0.2,-1.2 0.7,-1.6 0.4,-0.4 0.9,-0.6 1.6,-0.5 l 5.8,0.2 -4.2,-8.8 -11.3,21.3 -1.7,-0.1 0.1,-1.6 h 0.7 l 11.9,-22.3 z"
   id="path664" />

	<path
   d="m 992,90.8 c 0.4,-0.4 1,-0.6 1.6,-0.6 0.6,0 1.2,0.2 1.6,0.7 0.4,0.5 0.6,1 0.6,1.6 l -0.3,12.6 c 0,0.6 0.1,1.1 0.5,1.5 0.3,0.4 0.8,0.6 1.5,0.6 l 5.6,0.2 c 0.6,0 1.2,0.2 1.6,0.7 0.4,0.4 0.6,1 0.6,1.6 0,0.6 -0.2,1.2 -0.7,1.6 -0.4,0.4 -1,0.6 -1.6,0.6 l -7,-0.1 c -0.4,0 -0.6,0.2 -0.6,0.6 0,0.4 0.2,0.6 0.6,0.6 l 10.6,0.2 -0.1,1.6 -10.6,-0.2 c -0.6,0 -1.2,-0.2 -1.6,-0.7 -0.4,-0.4 -0.6,-1 -0.6,-1.6 0,-0.6 0.2,-1.2 0.7,-1.6 0.5,-0.4 1,-0.6 1.6,-0.6 l 7,0.1 c 0.4,0 0.6,-0.2 0.6,-0.6 0,-0.4 -0.2,-0.6 -0.6,-0.6 l -5.6,-0.2 c -1,0 -1.9,-0.4 -2.5,-1.1 -0.7,-0.7 -1,-1.6 -0.9,-2.6 l 0.3,-12.6 c 0,-0.4 -0.2,-0.6 -0.6,-0.6 -0.4,0 -0.6,0.2 -0.6,0.6 l -0.4,19.6 c 0,0.6 -0.2,1.2 -0.7,1.6 -0.4,0.4 -1,0.6 -1.6,0.6 h -0.8 l 0.1,-1.6 h 0.8 c 0.4,0 0.6,-0.2 0.6,-0.6 l 0.5,-19.6 c -0.2,-0.8 0,-1.3 0.4,-1.7 z"
   id="path666" />

	<path
   d="m 1041.9,113.8 0.8,0.1 -0.1,1.6 h -0.8 c -0.6,0 -1.2,-0.2 -1.6,-0.7 -0.4,-0.4 -0.6,-1 -0.6,-1.6 l 0.5,-18.6 -7.8,10 -7.4,-10.3 -0.5,18.6 c 0,0.6 -0.2,1.2 -0.7,1.6 -0.4,0.4 -1,0.6 -1.6,0.6 h -0.8 l 0.1,-1.6 h 0.8 c 0.4,0 0.6,-0.2 0.6,-0.6 l 0.5,-21.8 h 1.1 l 7.8,10.9 8.3,-10.5 h 1.1 l -0.5,21.8 c 0.2,0.2 0.4,0.4 0.8,0.5 z"
   id="path668" />

	<path
   d="m 1059.4,91.8 c 0.6,0 1.2,0.2 1.6,0.7 0.4,0.4 0.6,1 0.6,1.6 0,0.6 -0.2,1.2 -0.7,1.6 -0.4,0.4 -1,0.6 -1.6,0.6 L 1051,96 c -0.6,0 -1.1,0.2 -1.5,0.5 -0.4,0.4 -0.6,0.8 -0.6,1.4 0,0.6 0.1,1.1 0.5,1.5 0.4,0.4 0.8,0.6 1.4,0.6 l 5.6,0.2 c 0.6,0 1.2,0.2 1.6,0.7 0.4,0.4 0.6,1 0.6,1.6 0,0.7 -0.2,1.2 -0.7,1.6 -0.4,0.4 -0.9,0.6 -1.6,0.5 l -5.6,-0.2 c -0.6,0 -1.1,0.1 -1.5,0.5 -0.4,0.4 -0.6,0.8 -0.6,1.4 0,1.3 0.6,2 1.9,2.1 l 8.4,0.2 c 0.6,0 1.2,0.2 1.6,0.7 0.4,0.4 0.6,1 0.6,1.6 0,0.6 -0.3,1.1 -0.7,1.5 -0.4,0.4 -1,0.6 -1.6,0.6 l -9.8,-0.2 c -0.4,0 -0.6,0.2 -0.6,0.6 0,0.4 0.2,0.6 0.6,0.6 l 13.4,0.3 -0.1,1.6 -13.4,-0.3 c -0.6,0 -1.2,-0.2 -1.6,-0.7 -0.4,-0.4 -0.6,-1 -0.6,-1.6 0,-0.6 0.2,-1.2 0.7,-1.6 0.4,-0.4 1,-0.6 1.6,-0.6 l 9.8,0.2 c 0.4,0 0.6,-0.2 0.6,-0.6 0,-0.4 -0.2,-0.6 -0.6,-0.6 l -8.4,-0.2 c -1,0 -1.9,-0.4 -2.5,-1.1 -0.6,-0.7 -1,-1.6 -0.9,-2.6 0,-1 0.4,-1.9 1.1,-2.6 0.7,-0.7 1.6,-1 2.6,-0.9 l 5.6,0.2 c 0.4,0 0.6,-0.2 0.6,-0.6 0,-0.4 -0.2,-0.6 -0.6,-0.6 l -5.6,-0.2 c -1,0 -1.9,-0.4 -2.5,-1.1 -0.7,-0.7 -1,-1.6 -0.9,-2.6 0,-1 0.4,-1.9 1.1,-2.5 0.7,-0.7 1.6,-1 2.6,-0.9 l 8.4,0.2 c 0.4,0 0.6,-0.2 0.6,-0.6 0,-0.4 -0.2,-0.6 -0.6,-0.6 l -13.2,-0.3 -0.4,20.2 c 0,0.6 -0.2,1.2 -0.7,1.6 -0.4,0.4 -1,0.6 -1.6,0.6 h -0.8 l 0.1,-1.6 h 0.8 c 0.4,0 0.6,-0.2 0.6,-0.6 l 0.5,-21.8 z"
   id="path670" />

	<path
   d="m 1072.2,92.1 c 1.8,0.1 3.5,0.6 5.3,1.6 3.4,1.9 5.1,5 5.1,9.4 0,4.4 -1.9,7.4 -5.4,9.1 -1.8,0.9 -3.6,1.3 -5.4,1.2 l -2.8,-0.1 c -0.5,0 -0.7,0.2 -0.7,0.5 0,0.4 0.2,0.6 0.7,0.7 l 14.8,0.4 -0.1,1.6 -14.8,-0.4 c -0.6,0 -1.2,-0.2 -1.6,-0.7 -0.4,-0.4 -0.6,-0.9 -0.6,-1.6 0,-0.7 0.2,-1.2 0.7,-1.6 0.4,-0.4 1,-0.6 1.7,-0.5 l 2.8,0.1 c 1.6,0.1 3.2,-0.3 4.7,-1 3,-1.4 4.5,-4 4.5,-7.7 0,-3.7 -1.3,-6.4 -4.2,-8 -1.5,-0.8 -3,-1.3 -4.6,-1.3 l -6.4,-0.3 -0.4,20.2 c 0,0.6 -0.2,1.2 -0.7,1.6 -0.4,0.4 -1,0.6 -1.6,0.6 h -0.8 l 0.1,-1.6 h 0.8 c 0.4,0 0.6,-0.2 0.6,-0.6 l 0.5,-21.8 z"
   id="path672" />

	<path
   d="m 1090.8,115 v 1.5 h -0.8 c -0.6,0 -1.2,-0.2 -1.6,-0.7 -0.4,-0.4 -0.6,-1 -0.6,-1.6 l 0.4,-16.8 c 0,-0.4 -0.2,-0.6 -0.6,-0.6 -0.4,0 -0.6,0.2 -0.6,0.6 l -0.4,16.8 c 0,0.6 -0.2,1.2 -0.7,1.6 -0.4,0.4 -1,0.6 -1.6,0.6 h -0.8 l 0.1,-1.6 h 0.8 c 0.4,0 0.6,-0.2 0.6,-0.6 l 0.4,-16.8 c 0,-0.5 0.2,-1 0.5,-1.4 -0.3,-0.4 -0.5,-0.9 -0.4,-1.4 0,-0.6 0.3,-1.1 0.7,-1.5 0.4,-0.4 1,-0.6 1.6,-0.6 0.6,0 1.1,0.3 1.5,0.7 0.4,0.4 0.6,1 0.6,1.6 0,0.5 -0.2,1 -0.5,1.4 0.3,0.4 0.5,0.9 0.4,1.4 l -0.4,16.8 c 0,0.4 0.2,0.6 0.6,0.6 z M 1087,94.7 c 0,0.4 0.2,0.6 0.6,0.6 0.4,0 0.6,-0.2 0.6,-0.6 0,-0.4 -0.2,-0.6 -0.6,-0.6 -0.3,0 -0.5,0.2 -0.6,0.6 z"
   id="path674" />

	<path
   d="m 1104.4,92.7 6.1,13.1 -8.3,-0.2 c -0.4,0 -0.6,0.2 -0.6,0.6 0,0.4 0.2,0.6 0.6,0.6 l 8.9,0.2 4,8.6 h 0.8 l -0.1,1.6 -1.7,-0.1 -4.1,-8.6 -7.9,-0.2 c -0.6,0 -1.2,-0.2 -1.6,-0.7 -0.4,-0.4 -0.6,-1 -0.6,-1.6 0,-0.7 0.2,-1.2 0.7,-1.6 0.4,-0.4 0.9,-0.6 1.6,-0.5 l 5.8,0.2 -4.2,-8.8 -11.3,21.3 -1.7,-0.1 0.1,-1.6 h 0.7 l 11.9,-22.3 z"
   id="path676" />

</g>
      <g
         id="g706"
         transform="translate(17.172593,-67.680221)">
	<path
   d="m 326.7,86.3 c 1.4,-1 3.1,-1.4 4.8,-1.4 l 6.7,0.2 c 1.8,0.1 3.4,0.6 4.8,1.7 1.8,1.4 2.7,3.5 2.6,6.2 l -0.1,1.7 c 0,0.7 -0.3,1.4 -0.8,1.8 -0.5,0.5 -1.1,0.7 -1.9,0.7 -0.8,0 -1.4,-0.3 -1.9,-0.8 -0.5,-0.5 -0.7,-1.1 -0.7,-1.9 l 0.1,-1.7 c 0,-0.7 -0.2,-1.3 -0.6,-1.8 -0.4,-0.5 -1,-0.7 -1.7,-0.7 l -6.7,-0.2 c -0.7,0 -1.3,0.2 -1.8,0.6 -0.5,0.4 -0.7,1 -0.7,1.7 l -0.3,10 c 0,0.7 0.2,1.3 0.6,1.8 0.4,0.4 1,0.7 1.7,0.7 l 8.4,0.3 c 0.5,0 0.8,-0.2 0.8,-0.7 0,-0.5 -0.2,-0.7 -0.7,-0.7 l -5,-0.2 c -0.7,0 -1.4,-0.3 -1.8,-0.8 -0.5,-0.5 -0.7,-1.1 -0.7,-1.9 0,-0.8 0.3,-1.4 0.8,-1.9 0.5,-0.5 1.1,-0.7 1.9,-0.7 l 5,0.2 c 1.8,0.1 3.2,0.6 4.3,1.8 1.1,1.1 1.6,2.6 1.5,4.4 l -0.2,6.7 c 0,0.5 0.2,0.7 0.7,0.7 h 1 l -0.1,1.9 h -1 c -0.8,0 -1.4,-0.3 -1.9,-0.8 -0.5,-0.5 -0.7,-1.1 -0.7,-1.9 l 0.2,-6.7 c 0,-1.6 -0.5,-2.8 -1.8,-3.6 -0.7,-0.4 -1.4,-0.6 -2.2,-0.6 l -5,-0.2 c -0.5,0 -0.8,0.2 -0.8,0.7 0,0.5 0.2,0.7 0.7,0.7 l 5,0.2 c 0.8,0 1.4,0.3 1.9,0.8 0.5,0.5 0.7,1.1 0.7,1.9 0,0.8 -0.3,1.4 -0.8,1.9 -0.5,0.5 -1.1,0.7 -1.9,0.7 l -8.4,-0.3 c -1.2,0 -2.3,-0.5 -3.1,-1.3 -0.8,-0.8 -1.2,-1.9 -1.1,-3.1 l 0.3,-10.1 c 0,-1.2 0.5,-2.3 1.3,-3.1 0.8,-0.8 1.9,-1.2 3.1,-1.1 l 6.7,0.2 c 1.3,0 2.3,0.5 3.1,1.3 0.8,0.8 1.1,1.9 1.1,3.1 l -0.1,1.7 c 0,0.5 0.2,0.7 0.7,0.7 0.5,0 0.7,-0.2 0.7,-0.7 l 0.1,-1.7 c 0.1,-2.4 -0.8,-4.1 -2.6,-5.1 -1,-0.5 -1.9,-0.8 -3,-0.8 l -6.7,-0.2 c -1,0 -2,0.2 -3,0.7 -1.9,0.9 -2.9,2.5 -2.9,4.9 l -0.3,10 c -0.1,2.7 1.1,4.6 3.5,5.5 0.8,0.3 1.5,0.4 2.1,0.5 l 8.4,0.3 c 0.8,0 1.4,0.3 1.9,0.8 0.5,0.5 0.7,1.1 0.7,1.9 0,0.8 -0.3,1.4 -0.8,1.9 -0.5,0.5 -1.1,0.7 -1.9,0.7 l -17.7,-0.5 0.1,-1.9 17.7,0.5 c 0.5,0 0.8,-0.2 0.8,-0.7 0,-0.5 -0.2,-0.7 -0.7,-0.7 l -8.4,-0.3 c -1.8,-0.1 -3.4,-0.6 -4.8,-1.7 -1.8,-1.4 -2.7,-3.5 -2.6,-6.2 l 0.3,-10 c 0.2,-2.7 1.2,-4.7 3.1,-6 z"
   id="path680" />

	<path
   d="m 368.7,112.8 -0.1,1.9 -3,-0.1 -13.2,-14 0.1,-1.7 7.3,0.2 c 1,0 2,-0.2 3,-0.7 1.9,-0.9 2.8,-2.5 2.9,-4.9 0.1,-2.4 -0.8,-4.1 -2.6,-5.1 -1,-0.5 -1.9,-0.8 -3,-0.8 l -9.1,-0.3 -0.7,24.2 c 0,0.8 -0.3,1.4 -0.8,1.9 -0.5,0.5 -1.1,0.7 -1.9,0.7 h -1 l 0.1,-1.9 h 0.9 c 0.5,0 0.8,-0.2 0.8,-0.7 l 0.8,-26.1 11,0.3 c 1.8,0.1 3.4,0.6 4.8,1.7 1.8,1.4 2.7,3.5 2.6,6.2 -0.1,2.7 -1.1,4.7 -3,6 -1.4,1 -3.1,1.4 -4.8,1.4 l -4.4,-0.1 11.2,11.9 z"
   id="path682" />

	<path
   d="m 385.1,86.3 7.2,15.7 -9.9,-0.3 c -0.5,0 -0.8,0.2 -0.8,0.7 0,0.5 0.2,0.7 0.7,0.8 l 10.7,0.3 4.7,10.2 h 0.9 l -0.1,1.9 -2.1,-0.1 -4.7,-10.2 -9.5,-0.3 c -0.8,0 -1.4,-0.3 -1.9,-0.8 -0.5,-0.5 -0.7,-1.2 -0.7,-1.9 0,-0.8 0.3,-1.4 0.8,-1.9 0.5,-0.5 1.1,-0.7 1.9,-0.7 l 6.9,0.2 -4.9,-10.6 -13.6,25.3 -2.1,-0.1 0.1,-1.9 h 0.9 L 384,86.1 Z"
   id="path684" />

	<path
   d="m 412.1,87.3 c 1.8,0.1 3.4,0.6 4.8,1.7 1.8,1.4 2.7,3.5 2.6,6.2 -0.1,2.7 -1.1,4.7 -3,6 -1.4,1 -3.1,1.4 -4.8,1.4 l -5,-0.2 c -0.5,0 -0.8,0.2 -0.8,0.7 l -0.3,10.8 15.1,0.5 -0.1,1.9 -17,-0.5 0.4,-12.7 c 0,-0.8 0.3,-1.4 0.8,-1.9 0.5,-0.5 1.2,-0.7 1.9,-0.7 l 5,0.2 c 1,0 2,-0.2 3,-0.7 1.9,-0.9 2.8,-2.5 2.9,-4.9 0.1,-2.4 -0.8,-4.1 -2.6,-5.1 -1,-0.5 -1.9,-0.8 -3,-0.8 l -9,-0.2 -0.7,24.2 c 0,0.8 -0.3,1.4 -0.8,1.9 -0.5,0.5 -1.1,0.7 -1.9,0.7 h -1 l 0.1,-1.9 h 0.9 c 0.5,0 0.8,-0.2 0.8,-0.7 l 0.8,-26.1 z"
   id="path686" />

	<path
   d="m 440.5,88.9 c 0.5,-0.5 1.1,-0.7 1.9,-0.7 0.8,0 1.4,0.3 1.9,0.8 0.5,0.5 0.7,1.1 0.7,1.9 l -0.7,23.4 c 0,0.5 0.2,0.7 0.7,0.7 h 0.9 l -0.1,1.9 h -0.9 c -0.8,0 -1.4,-0.3 -1.9,-0.8 -0.5,-0.5 -0.7,-1.1 -0.7,-1.9 L 443,90.8 c 0,-0.5 -0.2,-0.7 -0.7,-0.7 -0.5,0 -0.7,0.2 -0.7,0.7 l -0.3,8.4 c 0,1.3 -0.5,2.3 -1.3,3 -0.8,0.8 -1.9,1.1 -3.1,1.1 l -6.7,-0.2 c -1.3,0 -2.3,-0.5 -3.1,-1.3 -0.8,-0.8 -1.1,-1.9 -1.1,-3.1 l 0.3,-8.4 c 0,-0.5 -0.2,-0.7 -0.7,-0.7 -0.5,0 -0.7,0.2 -0.7,0.7 l -0.7,23.4 c 0,0.8 -0.3,1.4 -0.8,1.9 -0.5,0.5 -1.1,0.7 -1.9,0.7 h -1 l 0.1,-1.9 h 0.9 c 0.5,0 0.8,-0.2 0.8,-0.7 L 423,90.3 c 0,-0.8 0.3,-1.4 0.8,-1.9 0.5,-0.5 1.1,-0.7 1.9,-0.7 0.8,0 1.4,0.3 1.9,0.8 0.5,0.5 0.7,1.1 0.7,1.9 l -0.3,8.4 c 0,0.7 0.2,1.3 0.6,1.8 0.4,0.5 1,0.7 1.7,0.7 l 6.7,0.2 c 0.7,0 1.3,-0.2 1.8,-0.6 0.5,-0.4 0.7,-1 0.7,-1.7 l 0.3,-8.4 c 0,-0.8 0.2,-1.4 0.7,-1.9 z"
   id="path688" />

	<path
   d="m 454.5,115.4 v 1.8 h -1 c -0.8,0 -1.4,-0.3 -1.9,-0.8 -0.5,-0.5 -0.7,-1.2 -0.7,-1.9 l 0.6,-20.1 c 0,-0.5 -0.2,-0.8 -0.7,-0.8 -0.5,0 -0.7,0.2 -0.7,0.7 l -0.6,20.1 c 0,0.8 -0.3,1.4 -0.8,1.9 -0.5,0.5 -1.1,0.7 -1.9,0.7 h -1 l 0.1,-1.9 h 0.9 c 0.5,0 0.8,-0.2 0.8,-0.7 l 0.6,-20.1 c 0,-0.6 0.2,-1.2 0.6,-1.7 -0.4,-0.5 -0.5,-1 -0.5,-1.7 0,-0.7 0.3,-1.3 0.8,-1.8 0.5,-0.5 1.2,-0.7 1.9,-0.7 0.7,0 1.3,0.3 1.8,0.8 0.5,0.5 0.7,1.2 0.7,1.9 0,0.6 -0.2,1.2 -0.6,1.6 0.4,0.5 0.5,1.1 0.5,1.7 l -0.6,20.1 c 0,0.5 0.2,0.7 0.7,0.7 z m -4.3,-24.3 c 0,0.5 0.2,0.7 0.7,0.7 0.5,0 0.7,-0.2 0.7,-0.7 0,-0.5 -0.2,-0.7 -0.7,-0.7 -0.4,0 -0.7,0.2 -0.7,0.7 z"
   id="path690" />

	<path
   d="m 462.4,90.3 c 1.9,-0.9 3.8,-1.3 5.6,-1.3 1.8,0.1 3.7,0.6 5.5,1.6 3.6,2 5.3,5.2 5.2,9.7 0,0.7 -0.3,1.4 -0.8,1.8 -0.5,0.5 -1.1,0.7 -1.9,0.7 -0.8,0 -1.4,-0.3 -1.8,-0.8 -0.5,-0.5 -0.7,-1.1 -0.7,-1.9 0,-1 -0.2,-2 -0.7,-3 -0.9,-1.9 -2.5,-2.9 -4.9,-2.9 -2.4,-0.1 -4.1,0.8 -5.1,2.6 -0.5,1 -0.8,1.9 -0.8,3 l -0.1,3.3 c 0,1 0.2,2 0.7,3 0.9,1.9 2.5,2.8 4.9,2.9 l 5.1,0.2 c 1.4,0 2.7,0.5 3.7,1.3 1.4,1.1 2.1,2.7 2.1,4.8 0,0.5 0.2,0.7 0.7,0.7 h 1 l -0.1,1.9 h -0.9 c -0.8,0 -1.4,-0.3 -1.9,-0.8 -0.5,-0.5 -0.7,-1.1 -0.7,-1.9 0,-1.6 -0.5,-2.8 -1.8,-3.6 -0.7,-0.4 -1.4,-0.6 -2.2,-0.6 l -5.1,-0.2 c -2.7,-0.1 -4.7,-1.1 -6,-3 -1,-1.4 -1.5,-3.1 -1.4,-4.9 l 0.1,-3.3 c 0.1,-1.8 0.6,-3.4 1.7,-4.8 1.4,-1.8 3.5,-2.7 6.2,-2.7 2.7,0.1 4.7,1.1 6,3 1,1.4 1.4,3 1.4,4.8 0,0.5 0.2,0.8 0.7,0.8 0.5,0 0.7,-0.2 0.7,-0.7 0.1,-3.8 -1.3,-6.4 -4.2,-8.1 -1.5,-0.8 -3.1,-1.3 -4.7,-1.3 -1.6,0 -3.2,0.3 -4.7,1 -3,1.4 -4.5,4 -4.6,7.8 l -0.1,3.3 c -0.1,3.8 1.3,6.5 4.2,8.1 1.5,0.8 3.1,1.3 4.7,1.3 l 5.1,0.2 c 0.8,0 1.4,0.3 1.9,0.8 0.5,0.5 0.7,1.1 0.7,1.9 0,0.7 -0.3,1.4 -0.8,1.8 -0.5,0.5 -1.1,0.7 -1.9,0.7 l -17.8,-0.5 0.1,-1.9 17.7,0.5 c 0.5,0 0.8,-0.2 0.8,-0.7 0,-0.5 -0.2,-0.7 -0.7,-0.7 l -5.1,-0.2 c -1.8,-0.1 -3.6,-0.6 -5.5,-1.6 -3.6,-1.9 -5.3,-5.2 -5.2,-9.7 l 0.1,-3.3 c 0,-4.2 1.9,-7.4 5.6,-9.1 z"
   id="path692" />

	<path
   d="m 509.6,90.3 c 2.1,0.1 4.2,0.7 6.3,1.8 4.1,2.3 6.1,6 5.9,11.2 -0.2,5.2 -2.4,8.8 -6.6,10.8 -2.2,1 -4.3,1.5 -6.4,1.5 l -3.4,-0.1 c -0.5,0 -0.8,0.2 -0.8,0.7 0,0.5 0.3,0.8 0.8,0.8 l 17.7,0.5 -0.1,1.9 -17.6,-0.5 c -0.8,0 -1.4,-0.3 -1.9,-0.8 -0.5,-0.5 -0.7,-1.1 -0.7,-1.9 0,-0.8 0.3,-1.5 0.8,-1.9 0.5,-0.5 1.2,-0.7 2,-0.7 l 3.3,0.1 c 1.9,0.1 3.8,-0.4 5.6,-1.2 3.5,-1.7 5.4,-4.8 5.5,-9.2 0.1,-4.4 -1.5,-7.6 -4.9,-9.5 -1.8,-1 -3.6,-1.5 -5.5,-1.6 l -7.4,-0.2 -0.7,24.2 c 0,0.8 -0.3,1.4 -0.8,1.9 -0.5,0.5 -1.1,0.7 -1.9,0.7 h -1 l 0.1,-1.9 h 0.9 c 0.5,0 0.8,-0.2 0.8,-0.7 l 0.8,-26.1 z"
   id="path694" />

	<path
   d="m 543.3,91.3 c 0.8,0 1.4,0.3 1.9,0.8 0.5,0.5 0.7,1.1 0.7,1.9 0,0.8 -0.3,1.4 -0.8,1.9 -0.5,0.5 -1.2,0.7 -1.9,0.7 l -10,-0.3 c -0.7,0 -1.3,0.2 -1.8,0.6 -0.5,0.4 -0.7,1 -0.7,1.7 0,0.7 0.2,1.3 0.6,1.8 0.4,0.5 1,0.7 1.7,0.7 l 6.7,0.2 c 0.8,0 1.4,0.3 1.9,0.8 0.5,0.5 0.7,1.1 0.7,1.9 0,0.8 -0.3,1.4 -0.8,1.9 -0.5,0.5 -1.1,0.7 -1.9,0.7 l -6.7,-0.2 c -0.7,0 -1.3,0.2 -1.8,0.6 -0.5,0.4 -0.7,1 -0.7,1.7 0,1.6 0.7,2.4 2.3,2.5 l 10,0.3 c 0.8,0 1.4,0.3 1.9,0.8 0.5,0.5 0.7,1.2 0.7,1.9 0,0.7 -0.3,1.4 -0.8,1.8 -0.5,0.5 -1.2,0.7 -1.9,0.7 l -11.7,-0.4 c -0.5,0 -0.8,0.2 -0.8,0.7 0,0.5 0.2,0.7 0.7,0.7 l 16,0.5 -0.1,1.9 -16,-0.5 c -0.8,0 -1.4,-0.3 -1.9,-0.8 -0.5,-0.5 -0.7,-1.1 -0.7,-1.9 0,-0.8 0.3,-1.4 0.8,-1.9 0.5,-0.5 1.2,-0.7 1.9,-0.7 l 11.7,0.4 c 0.5,0 0.8,-0.2 0.8,-0.7 0,-0.5 -0.2,-0.7 -0.7,-0.8 l -10,-0.3 c -1.2,0 -2.3,-0.5 -3,-1.3 -0.8,-0.8 -1.2,-1.9 -1.1,-3.1 0.1,-1.2 0.5,-2.3 1.3,-3.1 0.8,-0.8 1.9,-1.2 3.1,-1.1 l 6.7,0.2 c 0.5,0 0.7,-0.2 0.7,-0.7 0,-0.5 -0.2,-0.7 -0.7,-0.7 l -6.7,-0.2 c -1.2,0 -2.3,-0.5 -3,-1.3 -0.8,-0.8 -1.2,-1.9 -1.1,-3.1 0,-1.2 0.5,-2.3 1.3,-3 0.8,-0.8 1.9,-1.2 3.1,-1.1 l 10,0.3 c 0.5,0 0.8,-0.2 0.8,-0.7 0,-0.5 -0.2,-0.7 -0.7,-0.7 l -15.8,-0.5 -0.7,24.2 c 0,0.8 -0.3,1.4 -0.8,1.9 -0.5,0.5 -1.1,0.7 -1.9,0.7 h -1 l 0.1,-1.9 h 0.9 c 0.5,0 0.8,-0.2 0.8,-0.7 l 0.8,-26.1 z"
   id="path696" />

	<path
   d="m 552.3,93.3 c 1.6,-1.1 3.4,-1.6 5.4,-1.6 2,0.1 3.7,0.7 5.3,1.9 2,1.6 3,3.9 2.9,6.9 v 0.8 c 0,0.8 -0.3,1.4 -0.8,1.9 -0.5,0.5 -1.1,0.7 -1.9,0.7 -0.8,0 -1.4,-0.3 -1.9,-0.8 -0.5,-0.5 -0.7,-1.1 -0.7,-1.9 v -0.8 c 0,-1.3 -0.4,-2.3 -1.4,-2.8 -0.5,-0.3 -1.1,-0.5 -1.7,-0.5 -0.6,0 -1.2,0.1 -1.8,0.4 -1,0.5 -1.6,1.4 -1.6,2.7 0,1.3 0.4,2.2 1.4,2.8 0.6,0.3 1.1,0.5 1.7,0.5 2,0.1 3.7,0.7 5.3,1.9 2,1.6 3,3.9 2.9,6.8 -0.1,2.9 -1.1,5 -3.1,6.5 l 4.6,0.1 -0.1,1.9 -10.1,-0.3 0.1,-1.9 c 1.1,0 2.3,-0.2 3.4,-0.8 2.2,-1 3.3,-2.9 3.4,-5.6 0.1,-2.7 -0.9,-4.6 -3,-5.8 -0.8,-0.5 -2,-0.8 -3.5,-1 -3.4,-0.4 -5,-2.2 -4.9,-5.3 0,-1.5 0.6,-2.7 1.6,-3.7 1,-0.9 2.2,-1.4 3.8,-1.3 1.5,0 2.7,0.6 3.6,1.6 0.9,1 1.4,2.2 1.3,3.8 v 0.8 c 0,0.5 0.2,0.7 0.7,0.7 0.5,0 0.7,-0.2 0.7,-0.7 v -0.8 c 0.1,-2.7 -0.9,-4.7 -3,-5.8 -1.1,-0.6 -2.2,-0.9 -3.3,-1 -1.2,0 -2.3,0.2 -3.4,0.8 -2.2,1 -3.3,2.9 -3.4,5.6 -0.1,2.7 0.9,4.6 3,5.8 1.1,0.6 2.2,0.9 3.4,1 1.5,0 2.7,0.6 3.6,1.6 0.9,1 1.4,2.2 1.3,3.7 0,1.5 -0.6,2.7 -1.5,3.7 -1,0.9 -2.2,1.4 -3.7,1.3 -1.5,0 -2.7,-0.6 -3.7,-1.6 -1,-1 -1.4,-2.2 -1.3,-3.8 v -1.6 c 0,-0.5 -0.2,-0.8 -0.7,-0.8 -0.5,0 -0.7,0.2 -0.7,0.7 l -0.2,7.5 c 0,0.7 -0.3,1.4 -0.8,1.8 -0.5,0.5 -1.1,0.7 -1.9,0.7 h -1 l 0.1,-1.9 h 0.9 c 0.5,0 0.8,-0.2 0.8,-0.7 l 0.2,-7.5 c 0,-0.8 0.3,-1.4 0.8,-1.9 0.5,-0.5 1.1,-0.7 1.9,-0.7 0.8,0 1.4,0.3 1.9,0.8 0.5,0.5 0.7,1.1 0.7,1.9 v 1.6 c 0,1.3 0.4,2.3 1.4,2.8 0.5,0.3 1.1,0.5 1.7,0.5 0.6,0 1.2,-0.1 1.8,-0.4 1,-0.5 1.5,-1.4 1.6,-2.7 0,-1.3 -0.4,-2.2 -1.4,-2.8 -0.6,-0.3 -1.1,-0.5 -1.7,-0.5 -2,-0.1 -3.7,-0.7 -5.3,-1.9 -2.1,-1.6 -3,-3.9 -2.9,-6.8 0,-2.8 1.1,-5 3.2,-6.5 z"
   id="path698" />

	<path
   d="m 575.7,119.1 v 1.8 h -1 c -0.8,0 -1.4,-0.3 -1.9,-0.8 -0.5,-0.5 -0.7,-1.2 -0.7,-1.9 l 0.6,-20.1 c 0,-0.5 -0.2,-0.8 -0.7,-0.8 -0.5,0 -0.7,0.2 -0.7,0.7 l -0.6,20.1 c 0,0.8 -0.3,1.4 -0.8,1.9 -0.5,0.5 -1.1,0.7 -1.9,0.7 h -1 l 0.1,-1.9 h 0.9 c 0.5,0 0.8,-0.2 0.8,-0.7 L 569.4,98 c 0,-0.6 0.2,-1.2 0.6,-1.7 -0.4,-0.5 -0.5,-1 -0.5,-1.7 0,-0.7 0.3,-1.3 0.8,-1.8 0.5,-0.5 1.2,-0.7 1.9,-0.7 0.7,0 1.3,0.3 1.8,0.8 0.5,0.5 0.7,1.2 0.7,1.9 0,0.6 -0.2,1.2 -0.6,1.6 0.4,0.5 0.5,1.1 0.5,1.7 l -0.6,20.1 c 0,0.5 0.2,0.7 0.7,0.7 z m -4.3,-24.3 c 0,0.5 0.2,0.7 0.7,0.7 0.5,0 0.7,-0.2 0.7,-0.7 0,-0.5 -0.2,-0.7 -0.7,-0.7 -0.5,0 -0.7,0.2 -0.7,0.7 z"
   id="path700" />

	<path
   d="m 581,94 c 1.4,-1 3.1,-1.4 4.8,-1.4 l 6.7,0.2 c 1.8,0.1 3.4,0.6 4.8,1.7 1.8,1.4 2.7,3.5 2.6,6.2 l -0.1,1.7 c 0,0.7 -0.3,1.4 -0.8,1.8 -0.5,0.5 -1.1,0.7 -1.9,0.7 -0.8,0 -1.4,-0.3 -1.9,-0.8 -0.5,-0.5 -0.7,-1.1 -0.7,-1.9 l 0.1,-1.7 c 0,-0.7 -0.2,-1.3 -0.6,-1.8 -0.4,-0.5 -1,-0.7 -1.7,-0.7 l -6.7,-0.2 c -0.7,0 -1.3,0.2 -1.8,0.6 -0.4,0.4 -0.7,1 -0.7,1.7 l -0.3,10 c 0,0.7 0.2,1.3 0.6,1.8 0.4,0.4 1,0.7 1.7,0.7 l 8.3,0.3 c 0.5,0 0.8,-0.2 0.8,-0.7 0,-0.5 -0.2,-0.7 -0.7,-0.7 l -5,-0.2 c -0.7,0 -1.4,-0.3 -1.8,-0.8 -0.5,-0.5 -0.7,-1.1 -0.7,-1.9 0,-0.8 0.3,-1.4 0.8,-1.9 0.5,-0.5 1.1,-0.7 1.9,-0.7 l 5,0.2 c 1.8,0.1 3.2,0.6 4.3,1.8 1.1,1.1 1.6,2.6 1.5,4.4 l -0.2,6.7 c 0,0.5 0.2,0.7 0.7,0.7 h 1 l -0.1,1.9 h -1 c -0.8,0 -1.4,-0.3 -1.9,-0.8 -0.5,-0.5 -0.7,-1.1 -0.7,-1.9 l 0.2,-6.7 c 0,-1.6 -0.5,-2.8 -1.8,-3.6 -0.7,-0.4 -1.4,-0.6 -2.2,-0.6 l -5,-0.2 c -0.5,0 -0.8,0.2 -0.8,0.7 0,0.5 0.2,0.7 0.7,0.7 l 5,0.2 c 0.8,0 1.4,0.3 1.9,0.8 0.5,0.5 0.7,1.1 0.7,1.9 0,0.8 -0.3,1.4 -0.8,1.9 -0.5,0.5 -1.1,0.7 -1.9,0.7 l -8.4,-0.3 c -1.2,0 -2.3,-0.5 -3.1,-1.3 -0.8,-0.8 -1.2,-1.9 -1.1,-3.1 L 581,100 c 0,-1.2 0.5,-2.3 1.3,-3.1 0.8,-0.8 1.9,-1.2 3.1,-1.1 l 6.7,0.2 c 1.3,0 2.3,0.5 3.1,1.3 0.8,0.8 1.1,1.9 1.1,3.1 l -0.1,1.7 c 0,0.5 0.2,0.7 0.7,0.7 0.5,0 0.7,-0.2 0.7,-0.7 l 0.1,-1.7 c 0.1,-2.4 -0.8,-4.1 -2.6,-5.1 -1,-0.5 -1.9,-0.8 -3,-0.8 l -6.7,-0.2 c -1,0 -2,0.2 -3,0.7 -1.9,0.9 -2.9,2.5 -2.9,4.9 l -0.3,10 c -0.1,2.7 1.1,4.6 3.5,5.5 0.8,0.3 1.5,0.4 2.1,0.5 l 8.4,0.3 c 0.8,0 1.4,0.3 1.9,0.8 0.5,0.5 0.7,1.1 0.7,1.9 0,0.8 -0.3,1.4 -0.8,1.9 -0.5,0.5 -1.1,0.7 -1.9,0.7 l -17.7,-0.5 0.1,-1.9 17.7,0.5 c 0.5,0 0.8,-0.2 0.8,-0.7 0,-0.5 -0.2,-0.7 -0.7,-0.7 l -8.3,-0.3 c -1.8,-0.1 -3.4,-0.6 -4.8,-1.7 -1.8,-1.4 -2.7,-3.5 -2.6,-6.2 l 0.3,-10 c 0.1,-2.7 1.1,-4.7 3.1,-6 z"
   id="path702" />

	<path
   d="m 617.6,94.3 c 0.5,-0.5 1.1,-0.7 1.9,-0.7 0.8,0 1.4,0.3 1.9,0.8 0.5,0.5 0.7,1.1 0.7,1.9 l -0.7,23.4 c 0,0.5 0.2,0.8 0.7,0.8 h 0.9 v 1.9 l -1,-0.1 c -1.7,-0.2 -2.5,-1.1 -2.5,-2.7 l 0.7,-23.3 c 0,-0.5 -0.2,-0.8 -0.7,-0.8 -0.5,0 -0.7,0.2 -0.7,0.7 l -0.8,26 h -1.5 l -11.2,-24.1 -0.6,21 c 0,0.8 -0.3,1.4 -0.8,1.9 -0.5,0.5 -1.1,0.7 -1.9,0.7 h -1 l 0.1,-1.9 h 0.9 c 0.5,0 0.8,-0.2 0.8,-0.7 l 0.8,-26 h 1.5 l 11.2,24.1 0.6,-21.1 c -0.1,-0.7 0.2,-1.3 0.7,-1.8 z"
   id="path704" />

</g>
    </g>
  </g>
  <style
     type="text/css"
     id="style10">
	.st0{fill:#42133B;}
	.st1{fill:#DC6B7B;}
	.st2{fill:url(#SVGID_1_);}
	.st3{fill:#009FE3;}
	.st4{fill:#9F5E9F;}
	.st5{fill:#521C3E;}
	.st6{opacity:0.36;fill:#635C8D;enable-background:new    ;}
	.st7{fill:url(#SVGID_2_);}
	.st8{fill:#DC3EF7;}
	.st9{fill:#FFFFFF;}
	.st10{opacity:0.5;fill:#7270B8;enable-background:new    ;}
	.st11{fill:#B19AF7;}
	.st12{fill:#FFD4AE;}
	.st13{opacity:0.35;fill:#7E0064;enable-background:new    ;}
	.st14{fill:#FFC2B8;}
	.st15{opacity:0.3;fill:#7270B8;enable-background:new    ;}
	.st16{fill:url(#SVGID_3_);}
	.st17{fill:#D85C6E;}
	.st18{opacity:0.2;fill:#FF7939;enable-background:new    ;}
	.st19{opacity:0.2;fill:#FF7983;enable-background:new    ;}
	.st20{opacity:0.52;fill:#7E0064;enable-background:new    ;}
	.st21{fill:url(#SVGID_4_);}
	.st22{fill:url(#SVGID_5_);}
	.st23{fill:url(#SVGID_6_);}
	.st24{fill:url(#SVGID_7_);}
	.st25{fill:#D8435F;}
	.st26{fill:#A22C36;}
	.st27{fill:#A25454;}
	.st28{fill:#834763;}
	.st29{fill:#DB8B9F;}
	.st30{opacity:0.2;fill:#7E0064;enable-background:new    ;}
	.st31{fill:url(#SVGID_8_);}
	.st32{fill:#7C0F49;}
	.st33{fill:#20FFED;}
	.st34{fill:#205799;}
	.st35{fill:#003E84;}
	.st36{fill:#206499;}
	.st37{fill:#861848;}
	.st38{fill:url(#SVGID_9_);}
	.st39{fill:url(#SVGID_10_);}
	.st40{fill:#E6007E;}
	.st41{fill:#A22736;}
	.st42{fill:#FF5E36;}
	.st43{fill:#B51B3D;}
	.st44{fill:#862236;}
	.st45{fill:url(#SVGID_11_);}
	.st46{fill:url(#SVGID_12_);}
	.st47{fill:url(#SVGID_13_);}
	.st48{fill:url(#SVGID_14_);}
	.st49{fill:url(#SVGID_15_);}
	.st50{fill:url(#SVGID_16_);}
	.st51{fill:url(#SVGID_17_);}
	.st52{fill:#FF6D9C;}
	.st53{fill:#BF3B51;}
	.st54{opacity:0.2;fill:#72704F;enable-background:new    ;}
	.st55{opacity:0.2;fill:#A7206B;enable-background:new    ;}
	.st56{opacity:0.2;fill:#FFFF4F;enable-background:new    ;}
	.st57{fill:url(#SVGID_18_);}
	.st58{fill:#D55164;}
	.st59{fill:url(#SVGID_19_);}
	.st60{fill:url(#SVGID_20_);}
	.st61{fill:#E7D6DB;}
	.st62{fill:#B47C8F;}
	.st63{fill:#86556E;}
	.st64{fill:#9A7C8F;}
	.st65{fill:#C4A2B6;}
	.st66{fill:#522F72;}
	.st67{fill:#F44A72;}
	.st68{fill:#A41A72;}
</style>
</svg>
